<svg xmlns="http://www.w3.org/2000/svg" xmlns:xlink="http://www.w3.org/1999/xlink" width="1102.305" height="673.372" viewBox="0 0 1102.305 673.372">
  <defs>
    <linearGradient id="linear-gradient" y1="0.5" x2="1" y2="0.5" gradientUnits="objectBoundingBox">
      <stop offset="0" stop-color="#dae3fe"></stop>
      <stop offset="1" stop-color="#e9effd"></stop>
    </linearGradient>
    <linearGradient id="linear-gradient-3" x1="0.575" y1="-0.252" x2="0.24" y2="1.092" gradientUnits="objectBoundingBox">
      <stop offset="0" stop-color="#a737d5"></stop>
      <stop offset="1" stop-color="#ef497a"></stop>
    </linearGradient>
    <linearGradient id="linear-gradient-7" x1="0" y1="0.5" x2="1" y2="0.5" xlink:href="#linear-gradient"></linearGradient>
    <linearGradient id="linear-gradient-8" x1="0" y1="0.5" x2="1" y2="0.5" xlink:href="#linear-gradient"></linearGradient>
    <linearGradient id="linear-gradient-9" x1="0" y1="0.5" x2="1" y2="0.5" xlink:href="#linear-gradient"></linearGradient>
    <linearGradient id="linear-gradient-10" x1="0" y1="0.5" x2="1" y2="0.5" xlink:href="#linear-gradient"></linearGradient>
    <linearGradient id="linear-gradient-13" x1="0" y1="0.5" x2="1" y2="0.5" xlink:href="#linear-gradient"></linearGradient>
    <linearGradient id="linear-gradient-23" x1="0" y1="0.5" x2="1" y2="0.5" xlink:href="#linear-gradient"></linearGradient>
    <linearGradient id="linear-gradient-29" x1="0" y1="0.5" x2="1" y2="0.5" xlink:href="#linear-gradient"></linearGradient>
    <linearGradient id="linear-gradient-32" x1="0" y1="0.5" x2="1" y2="0.5" xlink:href="#linear-gradient"></linearGradient>
    <linearGradient id="linear-gradient-34" x1="0" y1="0.5" x2="1" y2="0.5" xlink:href="#linear-gradient"></linearGradient>
    <linearGradient id="linear-gradient-42" x1="0" y1="0.5" x2="1" y2="0.5" xlink:href="#linear-gradient"></linearGradient>
    <linearGradient id="linear-gradient-59" x1="0" y1="0.5" x2="1" y2="0.5" xlink:href="#linear-gradient"></linearGradient>
    <linearGradient id="linear-gradient-119" x1="0" y1="0.5" x2="1" y2="0.5" xlink:href="#linear-gradient"></linearGradient>
    <linearGradient id="linear-gradient-196" x1="0" y1="0.5" x2="1" y2="0.5" xlink:href="#linear-gradient"></linearGradient>
    <linearGradient id="linear-gradient-204" x1="0.431" y1="0.404" x2="0.907" y2="1.062" gradientUnits="objectBoundingBox">
      <stop offset="0" stop-color="#4042e2"></stop>
      <stop offset="1" stop-color="#4f52ff"></stop>
    </linearGradient>
    <linearGradient id="linear-gradient-205" x1="-32.856" y1="0.417" x2="-32.198" y2="1.226" gradientUnits="objectBoundingBox">
      <stop offset="0" stop-color="#09005d"></stop>
      <stop offset="1" stop-color="#1a0f91"></stop>
    </linearGradient>
    <linearGradient id="linear-gradient-206" x1="-13.159" y1="0.741" x2="-12.895" y2="-0.499" xlink:href="#linear-gradient-205"></linearGradient>
    <linearGradient id="linear-gradient-207" x1="-34.003" y1="0.26" x2="-32.642" y2="1.995" xlink:href="#linear-gradient-205"></linearGradient>
    <linearGradient id="linear-gradient-208" x1="-8.415" y1="0.224" x2="-9.105" y2="0.657" xlink:href="#linear-gradient-205"></linearGradient>
    <linearGradient id="linear-gradient-209" x1="-18.81" y1="0.212" x2="-19.262" y2="0.899" gradientUnits="objectBoundingBox">
      <stop offset="0" stop-color="#ff928e"></stop>
      <stop offset="1" stop-color="#feb3b1"></stop>
    </linearGradient>
    <linearGradient id="linear-gradient-210" x1="0.587" y1="-0.899" x2="0.553" y2="-0.27" xlink:href="#linear-gradient-209"></linearGradient>
    <linearGradient id="linear-gradient-211" x1="0.198" y1="-0.248" x2="0.576" y2="0.96" xlink:href="#linear-gradient-209"></linearGradient>
    <linearGradient id="linear-gradient-212" x1="-50.637" y1="11.022" x2="-50.016" y2="10.026" xlink:href="#linear-gradient-209"></linearGradient>
    <linearGradient id="linear-gradient-213" x1="-244.994" y1="33.537" x2="-242.052" y2="30.387" xlink:href="#linear-gradient-209"></linearGradient>
    <linearGradient id="linear-gradient-214" x1="-2.036" y1="-6.272" x2="-1.216" y2="-4.082" gradientUnits="objectBoundingBox">
      <stop offset="0" stop-color="#e1473d"></stop>
      <stop offset="1" stop-color="#e9605a"></stop>
    </linearGradient>
    <linearGradient id="linear-gradient-215" x1="-0.308" y1="-6.896" x2="-0.058" y2="-4.606" xlink:href="#linear-gradient-214"></linearGradient>
    <linearGradient id="linear-gradient-216" x1="0.005" y1="-7.069" x2="0.143" y2="-4.976" xlink:href="#linear-gradient-214"></linearGradient>
  </defs>
  <g id="msg" transform="translate(-401.403 -145.452)">
    <path id="Path_13003" data-name="Path 13003" d="M442.152,144.492c-14.59,4.685-36.408,25.984-55.54,59.956C363.078,246.235,349.1,249.9,315.8,229.308s-72.4-6.757-100.71,48.062,21.28,97.438,67.238,164.221S236.526,491.1,206.8,569.1s12.2,165.5,150.137,164.463c138.128-1.043,346.933.956,346.933.956s193.641,18.44,264.156-29.2S951.806,634.5,1017.39,604.04s134.038-32.519,105.36-111.26-69.262-62.434-95.454-83.489-41.946-43.909-4.5-81.38,66.119-62.717,47.187-112.363c-27.162-71.225-93.079-80.415-165.5-50.226S764.343,317.522,703.962,286.64,566.393,104.594,442.152,144.492Z" transform="translate(313.389 80.794)" opacity="0.49" fill="url('#linear-gradient')"></path>
    <g id="Group_954" data-name="Group 954" transform="translate(260.211 145.452)">
      <g id="Group_988" data-name="Group 988" transform="translate(141.192 68.619)">
        <path id="Path_13004" data-name="Path 13004" d="M584.377,828.324a1.72,1.72,0,0,0-.75-2.926c-14.8-3.468-76.042-21.232-62.826-75.394,15.007-61.5,23.068-78.253-1.855-105.167-22.69-24.5-46.477-26.5-66.351-21.168a1.377,1.377,0,0,0,.088,2.674c12.135,2.3,39.5,9.817,45.894,31.453,8.278,28.018-5.339,90.97,15.946,126.039,21.029,34.647,44.128,38.281,68.294,44.877a1.647,1.647,0,0,0,1.56-.388Z" transform="translate(-369.634 -423.19)" fill="#bdd0fb"></path>
        <path id="Path_13005" data-name="Path 13005" d="M141.88,706.174a2.384,2.384,0,0,1-.2-3.979c3.8-2.746,10.448-8.62,16.126-19.183,5.694-10.593,20.832-33.584,52.544-27.654s42.249,61.732,48.66,116.677,68.4,74.843,68.4,74.843l16.635,6.438s-59.061-9.564-81.659-50.7S243.045,697.8,206.854,698.872C172.114,699.9,167.37,720.727,141.88,706.174Z" transform="translate(-133.132 -448.406)" fill="#91b3fa"></path>
        <g id="Group_952" data-name="Group 952" transform="translate(0 290.46)">
          <path id="Path_13006" data-name="Path 13006" d="M111.826,1037.307a2.03,2.03,0,0,1-2.469-2.95c5.685-9.653,18.861-27.436,38.548-26.91,26.981.72,46.829,12.984,72.686,56.748,25.132,42.537,82.609,57.309,98.145,57.692a1.5,1.5,0,0,1,1.434,1.282h0a1.5,1.5,0,0,1-1.538,1.749c-10.914-.541-68.25-4.06-97.2-19.414C191.047,1089.385,146.415,1023.3,111.826,1037.307Z" transform="translate(-109.061 -1007.436)" fill="#bdd0fb"></path>
          <path id="Path_13007" data-name="Path 13007" d="M186.654,1066.106a29.752,29.752,0,0,1,3.291-1.264c1.113-.37,2.247-.673,3.386-.952a48.991,48.991,0,0,1,6.94-1.123l.876-.081c.292-.029.585-.033.878-.05.586-.026,1.172-.064,1.758-.078,1.173,0,2.348-.028,3.52.05l.88.041.44.02.438.041,1.753.173c.586.043,1.164.157,1.745.238s1.163.166,1.74.275a56.792,56.792,0,0,1,13.383,4.3,66.186,66.186,0,0,1,12.04,7.264l2.768,2.176,2.644,2.323.661.581.631.613,1.258,1.23,1.258,1.23c.214.2.412.417.609.633l.6.646,2.384,2.585,2.254,2.7,1.126,1.35,1.062,1.4,2.12,2.8c.181.23.344.474.51.715l.5.724,1,1.447c.658.966,1.338,1.927,1.979,2.9l1.941,2.905c.325.483.644.971.974,1.45l1,1.431,2,2.861,2.068,2.815,1.036,1.406c.342.471.71.922,1.064,1.384l2.143,2.757c.727.908,1.475,1.8,2.212,2.7l1.109,1.348,1.148,1.314,1.148,1.315c.386.435.756.885,1.159,1.3l2.376,2.555a126.326,126.326,0,0,0,10.163,9.545l2.712,2.19,2.792,2.086c.943.679,1.908,1.325,2.862,1.99.473.338.967.643,1.458.954l1.472.933a95.314,95.314,0,0,0,12.357,6.436,114.153,114.153,0,0,0,13.133,4.7c4.468,1.312,9,2.4,13.562,3.365s9.153,1.79,13.754,2.561,9.211,1.5,13.821,2.22a.109.109,0,0,1-.033.215c-4.618-.677-9.235-1.354-13.847-2.08s-9.216-1.5-13.8-2.424A136.58,136.58,0,0,1,318,1153.325a95.669,95.669,0,0,1-23.912-14.585,127.174,127.174,0,0,1-10.258-9.588l-2.4-2.565c-.406-.422-.779-.873-1.169-1.309l-1.158-1.319-1.157-1.319-1.118-1.352c-.742-.9-1.5-1.8-2.23-2.709l-2.16-2.765c-.357-.463-.728-.916-1.073-1.388l-1.044-1.409-2.084-2.822-2.019-2.867-1.01-1.434c-.332-.481-.653-.969-.98-1.453l-1.955-2.911c-.649-.975-1.312-1.923-1.967-2.885l-.985-1.439-.493-.719c-.164-.24-.325-.482-.5-.711l-2.1-2.784-1.051-1.391-1.114-1.34-2.229-2.678-2.357-2.566-.589-.641c-.195-.215-.391-.429-.6-.628l-1.243-1.22-1.242-1.22-.623-.608-.653-.575-2.61-2.3-2.731-2.155a67.58,67.58,0,0,0-11.845-7.237,56.019,56.019,0,0,0-13.171-4.337c-.568-.112-1.143-.188-1.715-.284s-1.142-.2-1.72-.248l-1.729-.185-.432-.046-.434-.025-.868-.051c-1.157-.092-2.317-.077-3.477-.093-.58.007-1.159.038-1.739.056-.289.014-.58.013-.869.039l-.867.069a48.5,48.5,0,0,0-6.881,1.026c-1.13.265-2.258.542-3.365.891a29.462,29.462,0,0,0-3.261,1.189l-.008,0a.18.18,0,0,1-.149-.329Z" transform="translate(-168.009 -1049.365)" fill="url('#linear-gradient')"></path>
        </g>
        <path id="Path_13012" data-name="Path 13012" d="M155.306,721.7a20.467,20.467,0,0,0,4.735-.623,25.846,25.846,0,0,0,4.519-1.558,27.363,27.363,0,0,0,7.825-5.4,33.283,33.283,0,0,0,3.143-3.586c.463-.647.94-1.285,1.359-1.962.447-.659.834-1.356,1.237-2.043.2-.342.374-.7.562-1.054s.381-.7.541-1.065l1.015-2.185a34.235,34.235,0,0,1,2.424-4.241,48.827,48.827,0,0,1,13.783-13.616,36.339,36.339,0,0,1,8.811-4.207,30.032,30.032,0,0,1,4.789-1.09,26.328,26.328,0,0,1,4.917-.191l.615.039c.205.011.41.027.614.056l1.224.152,1.212.224c.2.033.4.08.6.132l.6.148a25.774,25.774,0,0,1,4.629,1.655c.186.086.376.164.558.257l.545.284c.36.194.732.369,1.082.58l1.053.629.263.157.254.171.508.343.508.343.254.172.244.185.976.738c.332.239.633.515.948.773s.629.519.931.792a50.681,50.681,0,0,1,6.547,7.2,72.452,72.452,0,0,1,5.277,8.148c1.6,2.813,3.008,5.723,4.324,8.67s2.51,5.947,3.616,8.975q3.266,9.106,5.623,18.488a.146.146,0,0,1-.281.075c-1.749-6.189-3.686-12.326-5.975-18.327-.275-.754-.582-1.5-.876-2.243s-.582-1.5-.9-2.233L249,713.251c-.308-.741-.659-1.462-.986-2.194-1.34-2.913-2.772-5.785-4.382-8.553a76.28,76.28,0,0,0-5.282-8,49.673,49.673,0,0,0-6.438-7.039c-.3-.265-.607-.511-.91-.768s-.6-.519-.925-.749l-.951-.714-.238-.178-.246-.166-.493-.331-.493-.331-.247-.165-.255-.151-1.02-.605c-.34-.2-.7-.369-1.047-.556l-.526-.273c-.176-.089-.359-.163-.539-.245a24.745,24.745,0,0,0-4.451-1.574l-.574-.14c-.191-.049-.382-.094-.577-.124l-1.162-.211-1.172-.141c-.195-.028-.391-.042-.588-.051l-.589-.036a26.622,26.622,0,0,0-4.713.189,28.971,28.971,0,0,0-4.617,1.03,35.3,35.3,0,0,0-8.575,4.05,46.538,46.538,0,0,0-7.441,5.957,49.115,49.115,0,0,0-6.139,7.3,33.4,33.4,0,0,0-2.415,4.1l-1.046,2.179c-.168.37-.378.719-.565,1.079s-.376.72-.587,1.068c-.42.7-.824,1.4-1.289,2.069-.437.686-.932,1.332-1.414,1.987a33.975,33.975,0,0,1-3.26,3.625,27.813,27.813,0,0,1-8.1,5.346,23.354,23.354,0,0,1-9.455,1.987.118.118,0,0,1,0-.236Z" transform="translate(-144.144 -467.001)" fill="#bdd0fb"></path>
      </g>
      <path id="Path_13008" data-name="Path 13008" d="M1633.354,228.2c-5.936-16.1-14.22-31.164-23.1-45.88a5.7,5.7,0,0,0-10.5,2c-3.772,21.8-18.339,41.865-35.187,57.038-21.456,19.323-47.175,33.62-67.707,53.922-42.257,41.784-57.5,103.817-61.652,163.1s.875,119.318-9.208,177.884c-4.807,27.921-13.33,55.854-30.221,78.6-16.589,22.339-42.271,39.117-70.019,40.112a1.317,1.317,0,0,0-1.263,1.538h0a1.332,1.332,0,0,0,.856,1.026c32.86,11.809,70.9-7.406,90.313-36.53,19.559-29.338,24.045-66.08,24.872-101.331s-1.4-71.03,6.815-105.319a177.6,177.6,0,0,1,53.039-89.535c23.747-21.528,52.813-36.136,79.139-54.419s51.1-42.093,59.387-73.056C1644.99,274.65,1641.483,250.241,1633.354,228.2Z" transform="translate(-779.465 -179.562)" fill="#bdd0fb"></path>
      <g id="Group_953" data-name="Group 953" transform="translate(600.508 148.696)">
        <path id="Path_13009" data-name="Path 13009" d="M1448.8,1500.15l-.56-3.892.256,0c1.852-.018,3.727-.128,5.571-.325l.82-.087-.662.49c-1.869,1.385-3.547,2.57-5.129,3.621Zm-.043-3.45.386,2.683c1.3-.871,2.67-1.835,4.158-2.926C1451.792,1496.6,1450.267,1496.678,1448.757,1496.7Z" transform="translate(-1448.24 -1054.298)" fill="url('#linear-gradient-3')"></path>
        <path id="Path_13010" data-name="Path 13010" d="M1796.158,512.924c-21.154,22.283-51.47,36.371-80.988,46.969-38.6,13.86-79.8,24.892-110.642,51.927-32.218,28.241-48.757,70.426-57.919,112.278s-12.123,84.973-23.136,126.377C1513,889.852,1493.838,928.9,1461.288,953.02c27.7-2.96,51.016-25.472,62.941-51.085,12.719-27.32,15.364-58.041,19.733-87.858s11.24-60.666,30.424-83.907c37.641-45.6,107.733-46.533,155.844-80.908,24.89-17.783,42.816-43.956,55.291-71.887,8.5-19.034,14.661-38.97,20.053-59.134A5.579,5.579,0,0,0,1796.158,512.924Z" transform="translate(-1455.437 -511.166)" fill="#bdd0fb"></path>
      </g>
      <path id="Path_13011" data-name="Path 13011" d="M1748.627,293.249c-.382,1.577-.857,3.1-1.36,4.622s-1.058,3.024-1.64,4.516c-1.169,2.981-2.461,5.913-3.85,8.8s-2.876,5.723-4.469,8.5c-1.576,2.788-3.264,5.511-5.007,8.2a177.759,177.759,0,0,1-11.37,15.479,191.005,191.005,0,0,1-12.971,14.166q-6.831,6.755-14.266,12.857c-2.463,2.055-4.974,4.009-7.466,6l-7.467,5.971a353.424,353.424,0,0,0-28.653,25.192,180.945,180.945,0,0,0-23.964,29.517c-3.433,5.34-6.573,10.866-9.46,16.525q-4.252,8.529-7.752,17.412c-2.273,5.937-4.426,11.927-6.248,18.025-1.9,6.074-3.531,12.23-5.073,18.408-3.035,12.37-5.367,24.913-7.3,37.511a.34.34,0,0,1-.673-.1c1.8-12.635,4.005-25.223,6.919-37.664A280.508,280.508,0,0,1,1607.65,470.5q3.484-8.942,7.7-17.58c2.876-5.72,6.01-11.314,9.444-16.724a181.2,181.2,0,0,1,24.113-29.843,355.065,355.065,0,0,1,28.743-25.373c4.95-4.023,9.988-7.962,14.911-11.978s9.666-8.246,14.2-12.693a189.3,189.3,0,0,0,12.917-13.991,180.283,180.283,0,0,0,11.454-15.212c1.76-2.642,3.469-5.321,5.065-8.067s3.15-5.516,4.58-8.353,2.776-5.715,3.995-8.648q.912-2.2,1.726-4.438c.538-1.49,1.053-3,1.464-4.515l0-.012a.34.34,0,0,1,.658.169Z" transform="translate(-925.724 -242.038)" fill="url('#linear-gradient')"></path>
    </g>
    <rect id="Rectangle_134" data-name="Rectangle 134" width="858" height="400" rx="5" transform="translate(531 340)" fill="#fff"></rect>
    <g id="Group_987" data-name="Group 987">
      <g id="Group_955" data-name="Group 955" transform="translate(467.795 255.733)">
        <path id="Path_13013" data-name="Path 13013" d="M524.922,406.059c-28.839,10.328-56.815,36.184-52.92,69.193,3.312,28.069,35.521,36.355,55.06,39.313A22.578,22.578,0,0,1,541,522.412c8.462,10.118,26.591,26.98,46.486,15.756a1.6,1.6,0,0,0-.861-2.978c-5.289.209-12.795-.552-17.9-5.521-6.958-6.769-4.439-18.514,4.553-22.171,17.017-6.923,49.127-25.772,44.969-68.487C612.621,381.241,524.922,406.059,524.922,406.059Z" transform="translate(-471.637 -400.759)" fill="#fff"></path>
        <path id="Path_13014" data-name="Path 13014" d="M593.716,495.055s1.42-19.314,20.672-16.121c18.238,3.024,12.4,27.976-13.3,43.856a10.089,10.089,0,0,1-9.25.693c-11.282-4.8-37.56-18.536-23.066-37.616C578.135,473.546,593.716,495.055,593.716,495.055Z" transform="translate(-522.871 -443.682)" fill="#91b3fa"></path>
        <path id="Path_13015" data-name="Path 13015" d="M495.977,459.663a.9.9,0,0,1-.825-1.247A59.951,59.951,0,0,1,512.4,435.629c9.715-8.051,22.515-14.131,38.041-18.07a.9.9,0,0,1,.441,1.739c-34.423,8.733-48.407,26.475-54.078,39.82A.9.9,0,0,1,495.977,459.663Z" transform="translate(-484.568 -410.01)" fill="url('#linear-gradient')"></path>
        <path id="Path_13016" data-name="Path 13016" d="M486.262,555.73a.9.9,0,0,1-.886-.767,42.4,42.4,0,0,1-.018-9.111.9.9,0,1,1,1.786.163,41.485,41.485,0,0,0,.007,8.69.9.9,0,0,1-.759,1.016A.91.91,0,0,1,486.262,555.73Z" transform="translate(-479.083 -480.34)" fill="url('#linear-gradient')"></path>
      </g>
      <g id="Group_970" data-name="Group 970" transform="translate(512.592 503.997)">
        <g id="Group_969" data-name="Group 969">
          <path id="Path_13091" data-name="Path 13091" d="M887.095,973.695a1.148,1.148,0,0,0-1.87,1.288c5.745,12.488,14.377,41.372-5.215,77.378-26.173,48.1-61.572,119.5,43.771,154.285a17,17,0,0,0,5.329.843h3.9a1.433,1.433,0,0,0,.656-2.691c-13.64-7.271-45.27-30.425-28.714-83.084C924.575,1059.291,916.108,1004.8,887.095,973.695Z" transform="translate(-852.526 -973.32)" fill="#bdd0fb"></path>
        </g>
        <path id="Path_13092" data-name="Path 13092" d="M919.039,1082.947a27.577,27.577,0,0,1,1.217,3.192c.355,1.08.639,2.181.9,3.288a56.326,56.326,0,0,1,1.34,13.546c0,1.139-.1,2.273-.156,3.411-.115,1.132-.182,2.27-.348,3.4a75.881,75.881,0,0,1-2.922,13.328,92.673,92.673,0,0,1-5.133,12.644,111.811,111.811,0,0,1-6.855,11.783l-3.738,5.616c-.6.938-1.153,1.912-1.733,2.866-.281.482-.585.952-.847,1.445l-.787,1.478c-1.092,1.95-2,3.99-2.962,6.009-.848,2.066-1.744,4.115-2.447,6.236a79.289,79.289,0,0,0-3.438,12.936c-.1.55-.226,1.094-.3,1.648l-.224,1.66c-.143,1.107-.326,2.211-.387,3.326-.082,1.113-.192,2.225-.251,3.339l-.078,3.347a74.309,74.309,0,0,0,1.227,13.313,62.794,62.794,0,0,0,10.327,24.505l.973,1.367.487.683c.172.221.354.433.53.65l2.133,2.592c.737.842,1.53,1.634,2.293,2.454.388.4.762.822,1.163,1.212l1.236,1.139,1.237,1.139c.416.375.812.774,1.26,1.112l2.616,2.116.654.53c.223.17.457.326.684.489l1.376.97,1.377.971.688.485.718.44a100.086,100.086,0,0,0,24.557,11.06,97.252,97.252,0,0,1-24.889-10.53A71.338,71.338,0,0,1,909.661,1246l-1.268-1.137c-.411-.391-.8-.809-1.2-1.213-.784-.821-1.6-1.614-2.359-2.458l-2.2-2.6c-.182-.218-.37-.432-.547-.653l-.5-.688-1.008-1.376a64.04,64.04,0,0,1-10.862-24.848,74.624,74.624,0,0,1-1.338-13.587l.06-3.417c.054-1.137.159-2.272.236-3.408.057-1.139.237-2.265.376-3.4l.219-1.694c.069-.565.2-1.121.291-1.683a80.919,80.919,0,0,1,3.43-13.208c.706-2.167,1.607-4.26,2.46-6.372.963-2.063,1.883-4.148,2.985-6.143l.795-1.511c.265-.5.571-.985.855-1.479.585-.977,1.14-1.972,1.751-2.933,1.248-1.909,2.512-3.809,3.757-5.651a113.618,113.618,0,0,0,6.781-11.575,92.1,92.1,0,0,0,5.17-12.358,74.45,74.45,0,0,0,3.146-13.01c.188-1.1.277-2.217.414-3.326.079-1.113.2-2.226.225-3.344.06-1.117.059-2.234.076-3.352-.02-1.117-.038-2.236-.114-3.352a53.161,53.161,0,0,0-.822-6.659,36.79,36.79,0,0,0-1.785-6.457l0-.011a.2.2,0,0,1,.361-.156Z" transform="translate(-872.301 -1033.726)" fill="#fff" opacity="0.5"></path>
      </g>
      <g id="Group_971" data-name="Group 971" transform="translate(1367.225 596.433)">
        <path id="Path_13093" data-name="Path 13093" d="M1433.592,1328.4s65.893,15.835,85.328-28.964c18.066-41.642,5.138-74.143,33.684-93.373a5.266,5.266,0,0,0-.537-9.014c-13.993-7.3-45.349-17.27-81.479,12.532C1421.568,1250.016,1433.592,1328.4,1433.592,1328.4Z" transform="translate(-1432.29 -1189.384)" fill="#91b3fa"></path>
        <path id="Path_13094" data-name="Path 13094" d="M1441.964,1341.878a18.534,18.534,0,0,0,2.19-1.186c.353-.226.712-.442,1.06-.676l1.03-.724a44.555,44.555,0,0,0,3.911-3.174,68.1,68.1,0,0,0,6.929-7.319,109.006,109.006,0,0,0,11.147-16.816c6.457-11.857,11.076-24.616,15.25-37.495,2.106-6.439,4.084-12.935,6.457-19.323,2.374-6.366,5.195-12.7,9.374-18.185a36.5,36.5,0,0,1,16.273-12.231,50.662,50.662,0,0,1,9.879-2.666c.842-.135,1.681-.286,2.523-.406l2.539-.278c.423-.041.845-.1,1.27-.127l1.273-.078,2.545-.155a.216.216,0,0,1,.033.431h-.01l-2.527.223-1.263.112c-.421.037-.838.109-1.257.161l-2.51.338c-.833.136-1.66.3-2.49.454a49.889,49.889,0,0,0-9.672,2.823,38.172,38.172,0,0,0-8.681,4.973,36.26,36.26,0,0,0-6.964,7.151,52.981,52.981,0,0,0-5.127,8.627c-1.463,3.025-2.683,6.17-3.855,9.334-2.321,6.34-4.266,12.835-6.344,19.3-2.056,6.469-4.246,12.911-6.709,19.256-.637,1.578-1.321,3.139-1.979,4.71l-1,2.353-.249.588-.276.577-.552,1.153-2.206,4.611c-.791,1.509-1.611,3.005-2.416,4.508A101.024,101.024,0,0,1,1458,1329.578l-.832.973-.416.487-.442.464-1.772,1.853c-.577.63-1.237,1.181-1.855,1.77s-1.247,1.169-1.919,1.7a45.362,45.362,0,0,1-4.087,3.1l-1.075.7c-.365.224-.743.429-1.114.644a18.983,18.983,0,0,1-2.333,1.13.28.28,0,0,1-.22-.515Z" transform="translate(-1437.522 -1206.844)" fill="#fff" opacity="0.5"></path>
      </g>
      <g id="Group_972" data-name="Group 972" transform="translate(734.802 184.874)">
        <path id="Path_13095" data-name="Path 13095" d="M1953.159,1242.786l-.272-1.333a.454.454,0,1,1,.89-.182v0l0,.016.255,1.3,0,.016a.448.448,0,0,1-.879.176Z" transform="translate(-1688.673 -943.607)" fill="url('#linear-gradient-7')"></path>
        <path id="Path_13096" data-name="Path 13096" d="M1951.741,1232.813l-.116-1.356a.474.474,0,0,1,.944-.081v.021l.1,1.325v.016a.468.468,0,0,1-.933.076Z" transform="translate(-1687.982 -938.11)" fill="url('#linear-gradient-8')"></path>
        <path id="Path_13097" data-name="Path 13097" d="M1951.423,1222.746l.036-1.361a.493.493,0,0,1,.986.026v.021l-.047,1.328v.016a.487.487,0,0,1-.974-.031Z" transform="translate(-1687.871 -932.574)" fill="url('#linear-gradient-9')"></path>
        <path id="Path_13098" data-name="Path 13098" d="M1952.068,1212.713l.18-1.348a.513.513,0,1,1,1.017.136v0l0,.016-.187,1.316,0,.015a.507.507,0,0,1-1-.139Z" transform="translate(-1688.225 -927.066)" fill="url('#linear-gradient-10')"></path>
        <path id="Path_13099" data-name="Path 13099" d="M1953.751,1202.822l.314-1.324a.533.533,0,1,1,1.037.246v0l0,.015-.318,1.291,0,.015a.527.527,0,0,1-1.024-.247Z" transform="translate(-1689.148 -921.643)" fill="url('#linear-gradient')"></path>
        <path id="Path_13100" data-name="Path 13100" d="M1956.39,1193.155l.435-1.288a.552.552,0,1,1,1.047.354v0l0,.014-.437,1.257,0,.014a.547.547,0,0,1-1.034-.354Z" transform="translate(-1690.595 -916.35)" fill="url('#linear-gradient')"></path>
        <path id="Path_13101" data-name="Path 13101" d="M1959.9,1183.784l.547-1.244a.569.569,0,1,1,1.042.457v0l-.006.013-.543,1.215-.006.013a.565.565,0,0,1-1.032-.457Z" transform="translate(-1692.52 -911.225)" fill="url('#linear-gradient-13')"></path>
        <path id="Path_13102" data-name="Path 13102" d="M1964.2,1174.758l.646-1.2a.584.584,0,0,1,1.027.555l0,0-.007.012-.641,1.167-.007.012a.579.579,0,0,1-1.017-.554Z" transform="translate(-1694.88 -906.292)" fill="url('#linear-gradient-13')"></path>
        <path id="Path_13103" data-name="Path 13103" d="M1969.212,1166.113l.736-1.142a.6.6,0,0,1,1.005.648l0,0-.007.011-.729,1.114-.007.011a.594.594,0,0,1-1-.647Z" transform="translate(-1697.631 -901.571)" fill="url('#linear-gradient')"></path>
        <path id="Path_13104" data-name="Path 13104" d="M1974.869,1157.88l.819-1.084a.613.613,0,0,1,.978.739l0,0-.008.011-.81,1.057-.008.011a.608.608,0,0,1-.969-.737Z" transform="translate(-1700.736 -897.078)" fill="url('#linear-gradient')"></path>
        <path id="Path_13105" data-name="Path 13105" d="M1981.119,1150.092l.9-1.022a.627.627,0,0,1,.944.826l0,0-.009.01-.884,1-.009.01a.623.623,0,0,1-.935-.824Z" transform="translate(-1704.166 -892.833)" fill="url('#linear-gradient')"></path>
        <path id="Path_13106" data-name="Path 13106" d="M1987.917,1142.778l.966-.956a.642.642,0,1,1,.9.912l0,0-.01.009-.952.931-.01.009a.638.638,0,0,1-.894-.909Z" transform="translate(-1707.896 -888.851)" fill="url('#linear-gradient')"></path>
        <path id="Path_13107" data-name="Path 13107" d="M1995.224,1135.975l1.032-.885a.657.657,0,1,1,.855,1l0,0-.011.009-1.016.86-.011.009a.652.652,0,0,1-.846-.993Z" transform="translate(-1711.905 -885.153)" fill="url('#linear-gradient')"></path>
        <path id="Path_13108" data-name="Path 13108" d="M2003.007,1129.721l1.089-.81a.671.671,0,1,1,.8,1.077l0,0-.01.007-1.075.789-.009.007a.667.667,0,0,1-.793-1.072Z" transform="translate(-1716.176 -881.758)" fill="url('#linear-gradient')"></path>
        <path id="Path_13109" data-name="Path 13109" d="M2011.174,1123.971l1.134-.746a.686.686,0,1,1,.754,1.146l0,0-.01.007-1.119.725-.01.006a.682.682,0,0,1-.745-1.141Z" transform="translate(-1720.66 -878.633)" fill="url('#linear-gradient-13')"></path>
        <path id="Path_13110" data-name="Path 13110" d="M2019.656,1118.692l1.172-.682a.7.7,0,1,1,.705,1.21l0,0-.009,0-1.157.665-.009.005a.7.7,0,0,1-.7-1.205Z" transform="translate(-1725.317 -875.766)" fill="url('#linear-gradient')"></path>
        <path id="Path_13111" data-name="Path 13111" d="M2028.405,1113.866l1.2-.623a.715.715,0,1,1,.657,1.27l0,0-.009,0-1.19.606-.009,0a.711.711,0,0,1-.649-1.265Z" transform="translate(-1730.121 -873.145)" fill="url('#linear-gradient-23')"></path>
        <path id="Path_13112" data-name="Path 13112" d="M2037.378,1109.465l1.23-.568a.73.73,0,0,1,.611,1.326l0,0-.009,0-1.217.552-.009,0a.725.725,0,0,1-.6-1.319Z" transform="translate(-1735.05 -870.755)" fill="url('#linear-gradient')"></path>
        <path id="Path_13113" data-name="Path 13113" d="M2046.535,1105.458l1.252-.517a.745.745,0,0,1,.568,1.377l0,0-.008,0-1.239.5-.008,0a.74.74,0,0,1-.56-1.37Z" transform="translate(-1740.081 -868.579)" fill="url('#linear-gradient-23')"></path>
        <path id="Path_13114" data-name="Path 13114" d="M2055.843,1101.81l1.269-.47a.759.759,0,1,1,.527,1.424h0l-.007,0-1.257.456-.007,0a.755.755,0,0,1-.52-1.417Z" transform="translate(-1745.196 -866.598)" fill="url('#linear-gradient')"></path>
        <path id="Path_13115" data-name="Path 13115" d="M2065.271,1098.486l1.282-.429a.774.774,0,0,1,.491,1.468h0l-.007,0-1.272.416-.007,0a.769.769,0,0,1-.483-1.461Z" transform="translate(-1750.378 -864.791)" fill="url('#linear-gradient')"></path>
        <path id="Path_13116" data-name="Path 13116" d="M2074.791,1095.45l1.293-.393a.788.788,0,0,1,.458,1.509h-.005l-.006,0-1.284.381-.006,0a.784.784,0,0,1-.45-1.5Z" transform="translate(-1755.612 -863.139)" fill="url('#linear-gradient')"></path>
        <path id="Path_13117" data-name="Path 13117" d="M2084.392,1092.661l1.3-.362a.8.8,0,1,1,.429,1.548h-.01l-1.3.351h0a.8.8,0,0,1-.422-1.54Z" transform="translate(-1760.892 -861.621)" fill="url('#linear-gradient-29')"></path>
        <path id="Path_13118" data-name="Path 13118" d="M2094.059,1090.1l1.308-.333a.812.812,0,0,1,.4,1.574h-.007l-1.3.325h0a.809.809,0,0,1-.4-1.57Z" transform="translate(-1766.211 -860.224)" fill="url('#linear-gradient-13')"></path>
        <path id="Path_13119" data-name="Path 13119" d="M2103.77,1087.71l1.313-.311a.821.821,0,1,1,.379,1.6h-.007l-1.307.3h0a.818.818,0,0,1-.375-1.593Z" transform="translate(-1771.556 -858.922)" fill="url('#linear-gradient')"></path>
        <path id="Path_13120" data-name="Path 13120" d="M2113.514,1085.465l1.316-.3a.83.83,0,1,1,.363,1.62h-.006l-1.312.288h0a.827.827,0,0,1-.358-1.615Z" transform="translate(-1776.921 -857.694)" fill="url('#linear-gradient-32')"></path>
        <path id="Path_13121" data-name="Path 13121" d="M2123.283,1083.324l1.318-.283a.839.839,0,0,1,.353,1.64h0l-1.316.278a.836.836,0,0,1-.35-1.635Z" transform="translate(-1782.302 -856.52)" fill="url('#linear-gradient')"></path>
        <path id="Path_13122" data-name="Path 13122" d="M2133.061,1081.241l1.317-.279a.848.848,0,1,1,.351,1.659h0l-1.317.273a.845.845,0,0,1-.347-1.654Z" transform="translate(-1787.69 -855.374)" fill="url('#linear-gradient-34')"></path>
        <path id="Path_13123" data-name="Path 13123" d="M2142.836,1079.172l1.315-.279a.857.857,0,1,1,.357,1.676h0l-1.318.274a.854.854,0,0,1-.35-1.672Z" transform="translate(-1793.078 -854.232)" fill="url('#linear-gradient')"></path>
        <path id="Path_13124" data-name="Path 13124" d="M2152.6,1077.078l1.313-.285a.866.866,0,1,1,.37,1.691h0l-1.318.28a.863.863,0,0,1-.361-1.688Z" transform="translate(-1798.463 -853.073)" fill="url('#linear-gradient-29')"></path>
        <path id="Path_13125" data-name="Path 13125" d="M2162.354,1074.919l1.309-.3h0a.875.875,0,0,1,.385,1.706h0l-1.316.292a.872.872,0,1,1-.377-1.7Z" transform="translate(-1803.841 -851.875)" fill="url('#linear-gradient')"></path>
        <path id="Path_13126" data-name="Path 13126" d="M2172.08,1072.657l1.3-.312h0a.883.883,0,1,1,.411,1.718h0l-1.313.308a.881.881,0,0,1-.4-1.715Z" transform="translate(-1809.207 -850.617)" fill="url('#linear-gradient')"></path>
        <path id="Path_13127" data-name="Path 13127" d="M2181.769,1070.251l1.3-.334h0a.892.892,0,1,1,.445,1.729h0l-1.31.331a.89.89,0,0,1-.436-1.725Z" transform="translate(-1814.555 -849.275)" fill="url('#linear-gradient')"></path>
        <path id="Path_13128" data-name="Path 13128" d="M2191.41,1067.663l1.29-.361h.006a.9.9,0,1,1,.486,1.736h0l-1.3.359a.9.9,0,0,1-.478-1.733Z" transform="translate(-1819.878 -847.83)" fill="url('#linear-gradient-13')"></path>
        <path id="Path_13129" data-name="Path 13129" d="M2200.986,1064.852l1.28-.393.007,0a.91.91,0,0,1,.535,1.74h0l-1.3.393a.908.908,0,0,1-.526-1.738Z" transform="translate(-1825.169 -846.257)" fill="url('#linear-gradient-13')"></path>
        <path id="Path_13130" data-name="Path 13130" d="M2210.485,1061.779l1.265-.43.008,0a.919.919,0,0,1,.592,1.741h0l-1.283.43a.917.917,0,1,1-.583-1.738Z" transform="translate(-1830.418 -844.537)" fill="url('#linear-gradient-42')"></path>
        <path id="Path_13131" data-name="Path 13131" d="M2219.876,1058.409l1.248-.472.009,0a.928.928,0,0,1,.656,1.737h0l-1.268.474a.926.926,0,0,1-.648-1.734Z" transform="translate(-1835.611 -842.648)" fill="url('#linear-gradient')"></path>
        <path id="Path_13132" data-name="Path 13132" d="M2229.14,1054.706l1.228-.518.01,0a.937.937,0,1,1,.729,1.727h0l-1.25.522a.934.934,0,1,1-.72-1.725Z" transform="translate(-1840.735 -840.572)" fill="url('#linear-gradient')"></path>
        <path id="Path_13133" data-name="Path 13133" d="M2238.249,1050.634l1.2-.569.011-.005a.946.946,0,1,1,.809,1.711l0,0-1.229.575a.943.943,0,1,1-.8-1.709Z" transform="translate(-1845.776 -838.288)" fill="url('#linear-gradient')"></path>
        <path id="Path_13134" data-name="Path 13134" d="M2247.171,1046.162l1.176-.626.013-.007a.955.955,0,0,1,.9,1.686l0,0-1.2.635a.952.952,0,1,1-.888-1.685Z" transform="translate(-1850.716 -835.777)" fill="url('#linear-gradient')"></path>
        <path id="Path_13135" data-name="Path 13135" d="M2255.874,1041.26l1.143-.682.012-.007a.964.964,0,0,1,.988,1.656l0,0-1.17.692a.961.961,0,1,1-.978-1.655Z" transform="translate(-1855.536 -833.029)" fill="url('#linear-gradient')"></path>
        <path id="Path_13136" data-name="Path 13136" d="M2264.325,1035.949l1.108-.736.012-.008a.973.973,0,1,1,1.076,1.621l0,0-1.135.747a.97.97,0,0,1-1.067-1.621Z" transform="translate(-1860.218 -830.056)" fill="url('#linear-gradient')"></path>
        <path id="Path_13137" data-name="Path 13137" d="M2272.518,1030.242l1.072-.787.011-.008a.982.982,0,0,1,1.162,1.583l0,0-1.1.8a.979.979,0,1,1-1.152-1.583Z" transform="translate(-1864.756 -826.864)" fill="url('#linear-gradient')"></path>
        <path id="Path_13138" data-name="Path 13138" d="M2280.438,1024.16l1.034-.836.011-.009a.991.991,0,0,1,1.246,1.541l0,0-1.059.849a.988.988,0,1,1-1.236-1.542Z" transform="translate(-1869.142 -823.465)" fill="url('#linear-gradient')"></path>
        <path id="Path_13139" data-name="Path 13139" d="M2288.071,1017.719l1-.883.01-.009a1,1,0,1,1,1.327,1.5l0,0-1.02.9a1,1,0,1,1-1.317-1.5Z" transform="translate(-1873.37 -819.869)" fill="url('#linear-gradient')"></path>
        <path id="Path_13140" data-name="Path 13140" d="M2295.4,1010.942l.955-.927.01-.009a1.009,1.009,0,1,1,1.405,1.447l0,0-.978.943a1.006,1.006,0,0,1-1.4-1.449Z" transform="translate(-1877.432 -816.088)" fill="url('#linear-gradient')"></path>
        <path id="Path_13141" data-name="Path 13141" d="M2302.428,1003.841l.912-.969.01-.01a1.018,1.018,0,1,1,1.482,1.4l0,0-.935.986a1.015,1.015,0,1,1-1.473-1.4Z" transform="translate(-1881.323 -812.128)" fill="url('#linear-gradient')"></path>
        <path id="Path_13142" data-name="Path 13142" d="M2309.135,996.434l.87-1.009.009-.01a1.026,1.026,0,0,1,1.556,1.339l0,0-.891,1.026a1.024,1.024,0,0,1-1.546-1.342Z" transform="translate(-1885.038 -808.001)" fill="url('#linear-gradient')"></path>
        <path id="Path_13143" data-name="Path 13143" d="M2315.514,988.738l.824-1.047.008-.011a1.036,1.036,0,0,1,1.627,1.281l0,0-.845,1.065a1.033,1.033,0,0,1-1.618-1.285Z" transform="translate(-1888.572 -803.713)" fill="url('#linear-gradient')"></path>
        <path id="Path_13144" data-name="Path 13144" d="M2321.551,980.774l.778-1.082.008-.011a1.044,1.044,0,0,1,1.7,1.219l0,0-.8,1.1a1.042,1.042,0,1,1-1.687-1.223Z" transform="translate(-1891.916 -799.278)" fill="url('#linear-gradient')"></path>
        <path id="Path_13145" data-name="Path 13145" d="M2327.241,972.563l.732-1.114.008-.011a1.049,1.049,0,1,1,1.754,1.152h0l-.749,1.136a1.048,1.048,0,0,1-1.751-1.153Z" transform="translate(-1895.068 -794.71)" fill="url('#linear-gradient')"></path>
        <path id="Path_13146" data-name="Path 13146" d="M2332.58,964.117l.683-1.145.007-.012a1.052,1.052,0,1,1,1.807,1.078h0l-.7,1.168a1.051,1.051,0,0,1-1.8-1.079Z" transform="translate(-1898.026 -790.012)" fill="url('#linear-gradient')"></path>
        <path id="Path_13147" data-name="Path 13147" d="M2337.547,955.449l.632-1.174.006-.012a1.055,1.055,0,1,1,1.858,1h0l-.646,1.2a1.054,1.054,0,0,1-1.855-1Z" transform="translate(-1900.778 -785.192)" fill="url('#linear-gradient-59')"></path>
        <path id="Path_13148" data-name="Path 13148" d="M2342.133,946.577l.58-1.2.006-.013a1.058,1.058,0,0,1,1.906.921h0l-.594,1.224a1.057,1.057,0,0,1-1.9-.922Z" transform="translate(-1903.319 -780.26)" fill="url('#linear-gradient')"></path>
        <path id="Path_13149" data-name="Path 13149" d="M2346.327,937.515l.526-1.224.006-.013a1.061,1.061,0,1,1,1.949.838h0l-.539,1.249a1.06,1.06,0,1,1-1.947-.84Z" transform="translate(-1905.643 -775.224)" fill="url('#linear-gradient')"></path>
        <path id="Path_13150" data-name="Path 13150" d="M2350.118,928.277l.471-1.245,0-.013a1.064,1.064,0,0,1,1.99.753h0l-.483,1.271a1.063,1.063,0,1,1-1.988-.755Z" transform="translate(-1907.745 -770.091)" fill="url('#linear-gradient')"></path>
        <path id="Path_13151" data-name="Path 13151" d="M2353.494,918.885l.415-1.265,0-.013a1.067,1.067,0,0,1,2.028.665h0l-.425,1.291a1.066,1.066,0,0,1-2.025-.667Z" transform="translate(-1909.616 -764.874)" fill="url('#linear-gradient')"></path>
        <path id="Path_13152" data-name="Path 13152" d="M2356.444,909.358l.356-1.282,0-.014a1.07,1.07,0,1,1,2.062.573v0l-.366,1.309a1.069,1.069,0,0,1-2.059-.576Z" transform="translate(-1911.25 -759.583)" fill="url('#linear-gradient')"></path>
        <path id="Path_13153" data-name="Path 13153" d="M2358.955,899.714l.3-1.3,0-.014a1.073,1.073,0,1,1,2.091.479h0l-.305,1.325a1.072,1.072,0,1,1-2.089-.482Z" transform="translate(-1912.643 -754.227)" fill="url('#linear-gradient')"></path>
        <path id="Path_13154" data-name="Path 13154" d="M2361.019,889.964l.236-1.308,0-.015a1.076,1.076,0,0,1,2.117.382h0l-.243,1.338a1.075,1.075,0,0,1-2.115-.385Z" transform="translate(-1913.787 -748.814)" fill="url('#linear-gradient-7')"></path>
        <path id="Path_13155" data-name="Path 13155" d="M2362.622,880.133l.174-1.317,0-.015a1.079,1.079,0,1,1,2.139.282h0l-.18,1.348a1.078,1.078,0,0,1-2.136-.284Z" transform="translate(-1914.676 -743.357)" fill="url('#linear-gradient')"></path>
        <path id="Path_13156" data-name="Path 13156" d="M2363.755,870.241l.11-1.324V868.9a1.082,1.082,0,1,1,2.156.178h0l-.114,1.356a1.081,1.081,0,1,1-2.154-.181Z" transform="translate(-1915.305 -737.867)" fill="url('#linear-gradient-10')"></path>
        <path id="Path_13157" data-name="Path 13157" d="M2364.407,860.31l.044-1.328v-.016a1.085,1.085,0,0,1,2.168.073h0l-.047,1.36a1.084,1.084,0,1,1-2.166-.076Z" transform="translate(-1915.666 -732.356)" fill="url('#linear-gradient')"></path>
        <path id="Path_13158" data-name="Path 13158" d="M2364.548,850.364l-.019-1.328v-.015a1.088,1.088,0,0,1,2.175-.031h0l.018,1.359a1.087,1.087,0,0,1-2.173.028Z" transform="translate(-1915.734 -726.84)" fill="url('#linear-gradient')"></path>
        <path id="Path_13159" data-name="Path 13159" d="M2364.166,840.421l-.081-1.328v-.015a1.09,1.09,0,1,1,2.177-.133v0l.082,1.358a1.09,1.09,0,0,1-2.176.13Z" transform="translate(-1915.488 -721.326)" fill="url('#linear-gradient-59')"></path>
        <path id="Path_13160" data-name="Path 13160" d="M2363.324,830.5l-.142-1.322,0-.015a1.094,1.094,0,0,1,2.175-.233h0l.144,1.353a1.092,1.092,0,1,1-2.173.23Z" transform="translate(-1914.987 -715.829)" fill="url('#linear-gradient-13')"></path>
        <path id="Path_13161" data-name="Path 13161" d="M2362.032,820.635l-.2-1.315,0-.014a1.1,1.1,0,0,1,2.168-.332v0l.2,1.344a1.1,1.1,0,1,1-2.166.329Z" transform="translate(-1914.238 -710.362)" fill="url('#linear-gradient')"></path>
        <path id="Path_13162" data-name="Path 13162" d="M2360.3,810.833l-.259-1.305,0-.014a1.1,1.1,0,1,1,2.157-.429h0l.263,1.334a1.1,1.1,0,1,1-2.155.425Z" transform="translate(-1913.246 -704.932)" fill="url('#linear-gradient')"></path>
        <path id="Path_13163" data-name="Path 13163" d="M2358.144,801.114l-.316-1.293,0-.013a1.1,1.1,0,1,1,2.141-.523h0l.32,1.321a1.1,1.1,0,1,1-2.141.519Z" transform="translate(-1912.019 -699.551)" fill="url('#linear-gradient-10')"></path>
        <path id="Path_13164" data-name="Path 13164" d="M2355.572,791.5l-.37-1.279,0-.013a1.105,1.105,0,1,1,2.123-.615h0l.376,1.306a1.1,1.1,0,0,1-2.123.612Z" transform="translate(-1910.563 -694.227)" fill="url('#linear-gradient')"></path>
        <path id="Path_13165" data-name="Path 13165" d="M2352.6,781.993l-.423-1.263,0-.013a1.108,1.108,0,1,1,2.1-.7h0l.43,1.289a1.107,1.107,0,1,1-2.1.7Z" transform="translate(-1908.886 -688.968)" fill="url('#linear-gradient')"></path>
        <path id="Path_13166" data-name="Path 13166" d="M2349.24,772.619l-.474-1.245,0-.012a1.111,1.111,0,0,1,2.077-.791h0l.482,1.27a1.11,1.11,0,0,1-2.077.787Z" transform="translate(-1906.997 -683.782)" fill="url('#linear-gradient')"></path>
        <path id="Path_13167" data-name="Path 13167" d="M2345.507,763.386l-.523-1.225-.005-.012a1.114,1.114,0,1,1,2.05-.875h0l.532,1.25a1.114,1.114,0,0,1-2.049.872Z" transform="translate(-1904.901 -678.675)" fill="url('#linear-gradient')"></path>
        <path id="Path_13168" data-name="Path 13168" d="M2341.414,754.305l-.57-1.2-.005-.012a1.117,1.117,0,1,1,2.019-.956h0l.58,1.228a1.116,1.116,0,0,1-2.019.953Z" transform="translate(-1902.607 -673.654)" fill="url('#linear-gradient-23')"></path>
        <path id="Path_13169" data-name="Path 13169" d="M2336.975,745.389l-.616-1.182-.006-.012a1.12,1.12,0,0,1,1.987-1.035h0l.626,1.2a1.119,1.119,0,1,1-1.986,1.032Z" transform="translate(-1900.122 -668.725)" fill="url('#linear-gradient')"></path>
        <path id="Path_13170" data-name="Path 13170" d="M2332.2,736.644l-.66-1.158-.006-.011a1.123,1.123,0,1,1,1.951-1.112h0l.671,1.181a1.122,1.122,0,1,1-1.951,1.108Z" transform="translate(-1897.454 -663.892)" fill="url('#linear-gradient-10')"></path>
        <path id="Path_13171" data-name="Path 13171" d="M2327.106,728.083l-.7-1.133-.007-.01a1.126,1.126,0,1,1,1.914-1.187h0l.714,1.155a1.125,1.125,0,0,1-1.915,1.183Z" transform="translate(-1894.608 -659.162)" fill="url('#linear-gradient')"></path>
        <path id="Path_13172" data-name="Path 13172" d="M2321.7,719.714l-.742-1.106-.007-.01a1.129,1.129,0,0,1,1.875-1.259h0l.754,1.127a1.128,1.128,0,0,1-1.875,1.255Z" transform="translate(-1891.593 -654.54)" fill="url('#linear-gradient')"></path>
        <path id="Path_13173" data-name="Path 13173" d="M2316,711.548l-.782-1.079-.007-.01a1.132,1.132,0,1,1,1.833-1.328h0l.8,1.1a1.131,1.131,0,1,1-1.834,1.325Z" transform="translate(-1888.413 -650.029)" fill="url('#linear-gradient')"></path>
        <path id="Path_13174" data-name="Path 13174" d="M2310.007,703.583l-.821-1.052-.007-.01a1.135,1.135,0,1,1,1.79-1.4h0l.834,1.072a1.134,1.134,0,0,1-1.79,1.393Z" transform="translate(-1885.072 -645.63)" fill="url('#linear-gradient')"></path>
        <path id="Path_13175" data-name="Path 13175" d="M2303.736,695.835l-.858-1.023-.008-.009a1.138,1.138,0,0,1,1.744-1.462h0l.872,1.043a1.137,1.137,0,1,1-1.744,1.459Z" transform="translate(-1881.578 -641.353)" fill="url('#linear-gradient-13')"></path>
        <path id="Path_13176" data-name="Path 13176" d="M2297.2,688.313l-.892-.991-.008-.009a1.141,1.141,0,0,1,1.7-1.526h0l.906,1.01a1.14,1.14,0,1,1-1.7,1.523Z" transform="translate(-1877.938 -637.203)" fill="url('#linear-gradient-59')"></path>
        <path id="Path_13177" data-name="Path 13177" d="M2290.4,681.024l-.926-.959-.008-.009a1.144,1.144,0,1,1,1.646-1.588h0l.941.978a1.143,1.143,0,1,1-1.647,1.585Z" transform="translate(-1874.155 -633.181)" fill="url('#linear-gradient-23')"></path>
        <path id="Path_13178" data-name="Path 13178" d="M2283.357,673.977l-.958-.926-.009-.008a1.147,1.147,0,1,1,1.594-1.649h0l.975.944a1.146,1.146,0,1,1-1.595,1.646Z" transform="translate(-1870.234 -629.294)" fill="url('#linear-gradient')"></path>
        <path id="Path_13179" data-name="Path 13179" d="M2276.07,667.18l-.99-.892-.009-.008a1.15,1.15,0,1,1,1.539-1.708h0l1.007.91a1.149,1.149,0,0,1-1.54,1.7Z" transform="translate(-1866.181 -625.546)" fill="url('#linear-gradient')"></path>
        <path id="Path_13180" data-name="Path 13180" d="M2268.549,660.641l-1.022-.858-.01-.008a1.153,1.153,0,0,1,1.482-1.766h0l1.04.875a1.152,1.152,0,1,1-1.483,1.762Z" transform="translate(-1861.997 -621.94)" fill="url('#linear-gradient')"></path>
        <path id="Path_13181" data-name="Path 13181" d="M2260.8,654.369l-1.051-.821-.01-.008a1.156,1.156,0,1,1,1.422-1.822h0l1.069.837a1.155,1.155,0,1,1-1.424,1.818Z" transform="translate(-1857.69 -618.485)" fill="url('#linear-gradient')"></path>
        <path id="Path_13182" data-name="Path 13182" d="M2252.843,648.38l-1.079-.784-.01-.006a1.158,1.158,0,0,1,1.361-1.873l1.1.8a1.158,1.158,0,1,1-1.361,1.873h0Z" transform="translate(-1853.266 -615.187)" fill="url('#linear-gradient')"></path>
        <path id="Path_13183" data-name="Path 13183" d="M2244.691,642.661l-1.1-.749-.009-.006a1.155,1.155,0,0,1,1.3-1.912l1.123.761a1.156,1.156,0,1,1-1.3,1.913h0Z" transform="translate(-1848.74 -612.042)" fill="url('#linear-gradient')"></path>
        <path id="Path_13184" data-name="Path 13184" d="M2236.359,637.207l-1.127-.714-.009-.006a1.153,1.153,0,0,1,1.233-1.948l1.146.725a1.153,1.153,0,0,1-1.232,1.95h0Z" transform="translate(-1844.115 -609.045)" fill="url('#linear-gradient')"></path>
        <path id="Path_13185" data-name="Path 13185" d="M2227.859,632.017l-1.149-.678-.01-.006a1.15,1.15,0,0,1,1.169-1.981l1.168.688a1.151,1.151,0,0,1-1.169,1.983h0Z" transform="translate(-1839.398 -606.194)" fill="url('#linear-gradient')"></path>
        <path id="Path_13186" data-name="Path 13186" d="M2219.2,627.092l-1.17-.643-.01,0a1.148,1.148,0,0,1,1.105-2.012l1.189.652a1.149,1.149,0,0,1-1.105,2.014h0Z" transform="translate(-1834.596 -603.49)" fill="url('#linear-gradient')"></path>
        <path id="Path_13187" data-name="Path 13187" d="M2210.4,622.43l-1.188-.608-.01,0a1.145,1.145,0,0,1,1.043-2.04l1.207.616a1.146,1.146,0,1,1-1.042,2.042h0Z" transform="translate(-1829.714 -600.932)" fill="url('#linear-gradient')"></path>
        <path id="Path_13188" data-name="Path 13188" d="M2201.462,618.031l-1.206-.573-.009,0a1.143,1.143,0,0,1,.98-2.065l1.225.581a1.143,1.143,0,0,1-.979,2.067h0Z" transform="translate(-1824.759 -598.519)" fill="url('#linear-gradient')"></path>
        <path id="Path_13189" data-name="Path 13189" d="M2192.4,613.893l-1.222-.539-.009,0a1.14,1.14,0,0,1,.918-2.088l1.241.545a1.141,1.141,0,0,1-.918,2.09h0Z" transform="translate(-1819.736 -596.251)" fill="url('#linear-gradient')"></path>
        <path id="Path_13190" data-name="Path 13190" d="M2183.223,610.014l-1.237-.5-.009,0a1.138,1.138,0,0,1,.858-2.108l1.255.509a1.139,1.139,0,0,1-.857,2.11h0Z" transform="translate(-1814.651 -594.126)" fill="url('#linear-gradient')"></path>
        <path id="Path_13191" data-name="Path 13191" d="M2173.941,606.389l-1.251-.47-.009,0a1.136,1.136,0,0,1,.8-2.126l1.268.475a1.136,1.136,0,0,1-.8,2.128h0Z" transform="translate(-1809.508 -592.142)" fill="url('#linear-gradient')"></path>
        <path id="Path_13192" data-name="Path 13192" d="M2164.564,603.016l-1.263-.437-.009,0a1.133,1.133,0,0,1,.74-2.142l1.28.441a1.134,1.134,0,1,1-.739,2.144h0Z" transform="translate(-1804.314 -590.297)" fill="url('#linear-gradient')"></path>
        <path id="Path_13193" data-name="Path 13193" d="M2155.1,599.892l-1.274-.4-.008,0a1.131,1.131,0,0,1,.681-2.156l1.291.407a1.131,1.131,0,0,1-.681,2.158h0Z" transform="translate(-1799.074 -588.59)" fill="url('#linear-gradient')"></path>
        <path id="Path_13194" data-name="Path 13194" d="M2145.559,597.012l-1.284-.371-.008,0a1.128,1.128,0,0,1,.625-2.168l1.3.374a1.129,1.129,0,0,1-.625,2.17h0Z" transform="translate(-1793.791 -587.017)" fill="url('#linear-gradient')"></path>
        <path id="Path_13195" data-name="Path 13195" d="M2135.947,594.373l-1.293-.339-.008,0a1.126,1.126,0,0,1,.57-2.178l1.31.342a1.126,1.126,0,1,1-.569,2.18h0Z" transform="translate(-1788.47 -585.578)" fill="url('#linear-gradient')"></path>
        <path id="Path_13196" data-name="Path 13196" d="M2126.275,591.972l-1.3-.307-.008,0a1.123,1.123,0,0,1,.516-2.187l1.315.309a1.124,1.124,0,0,1-.515,2.189h0Z" transform="translate(-1783.118 -584.271)" fill="url('#linear-gradient')"></path>
        <path id="Path_13197" data-name="Path 13197" d="M2116.547,589.8l-1.307-.277h-.008a1.121,1.121,0,0,1,.463-2.194l1.323.278a1.122,1.122,0,0,1-.462,2.2h-.009Z" transform="translate(-1777.735 -583.091)" fill="url('#linear-gradient-23')"></path>
        <path id="Path_13198" data-name="Path 13198" d="M2106.771,587.863l-1.315-.246h-.008a1.119,1.119,0,0,1,.411-2.2l1.331.248a1.119,1.119,0,0,1-.41,2.2h-.009Z" transform="translate(-1772.326 -582.038)" fill="url('#linear-gradient-23')"></path>
        <path id="Path_13199" data-name="Path 13199" d="M2096.945,586.148l-1.321-.217h-.008a1.116,1.116,0,0,1,.36-2.2l1.336.217a1.117,1.117,0,0,1-.359,2.2h-.009Z" transform="translate(-1766.89 -581.108)" fill="url('#linear-gradient')"></path>
        <path id="Path_13200" data-name="Path 13200" d="M2087.084,584.654l-1.326-.187h-.007a1.114,1.114,0,0,1,.31-2.206l1.341.188a1.115,1.115,0,0,1-.309,2.208h-.009Z" transform="translate(-1761.436 -580.301)" fill="url('#linear-gradient')"></path>
        <path id="Path_13201" data-name="Path 13201" d="M2077.19,583.378l-1.33-.158h-.007a1.111,1.111,0,0,1,.261-2.207l1.345.158a1.112,1.112,0,1,1-.26,2.209h-.009Z" transform="translate(-1755.964 -579.614)" fill="url('#linear-gradient')"></path>
        <path id="Path_13202" data-name="Path 13202" d="M2067.27,582.315l-1.334-.13h-.007a1.109,1.109,0,0,1,.214-2.208l1.348.13a1.11,1.11,0,1,1-.212,2.209h-.008Z" transform="translate(-1750.478 -579.045)" fill="url('#linear-gradient')"></path>
        <path id="Path_13203" data-name="Path 13203" d="M2057.328,581.464l-1.337-.1h-.007a1.106,1.106,0,0,1,.166-2.207l1.351.1a1.107,1.107,0,0,1-.165,2.208h-.008Z" transform="translate(-1744.982 -578.593)" fill="url('#linear-gradient')"></path>
        <path id="Path_13204" data-name="Path 13204" d="M2047.371,580.821l-1.339-.074h-.007a1.1,1.1,0,0,1,.12-2.2l1.352.073a1.1,1.1,0,1,1-.119,2.206h-.008Z" transform="translate(-1739.477 -578.255)" fill="url('#linear-gradient-13')"></path>
        <path id="Path_13205" data-name="Path 13205" d="M2037.4,580.383l-1.339-.046h-.007a1.1,1.1,0,0,1,.075-2.2l1.353.045a1.1,1.1,0,0,1-.074,2.2h-.008Z" transform="translate(-1733.967 -578.031)" fill="url('#linear-gradient')"></path>
        <path id="Path_13206" data-name="Path 13206" d="M2027.424,580.147l-1.339-.019h-.007a1.1,1.1,0,0,1,.031-2.2l1.352.018a1.1,1.1,0,0,1-.029,2.2h-.008Z" transform="translate(-1728.453 -577.919)" fill="url('#linear-gradient')"></path>
        <path id="Path_13207" data-name="Path 13207" d="M2017.447,580.1l-1.339.007h-.007a1.1,1.1,0,0,1-.013-2.193l1.352-.009a1.1,1.1,0,0,1,.014,2.2h-.008Z" transform="translate(-1722.938 -577.905)" fill="url('#linear-gradient-119')"></path>
        <path id="Path_13208" data-name="Path 13208" d="M2007.469,580.229l-1.339.034h-.007a1.094,1.094,0,0,1-.056-2.188l1.352-.035a1.095,1.095,0,1,1,.057,2.189h-.008Z" transform="translate(-1717.425 -577.979)" fill="url('#linear-gradient-29')"></path>
        <path id="Path_13209" data-name="Path 13209" d="M1997.5,580.553l-1.338.06h-.006a1.092,1.092,0,0,1-.1-2.182l1.351-.061a1.093,1.093,0,0,1,.1,2.183h-.008Z" transform="translate(-1711.915 -578.161)" fill="url('#linear-gradient')"></path>
        <path id="Path_13210" data-name="Path 13210" d="M1987.537,581.071l-1.336.085h-.006a1.089,1.089,0,0,1-.14-2.174l1.348-.088a1.09,1.09,0,1,1,.142,2.175h-.008Z" transform="translate(-1706.411 -578.45)" fill="url('#linear-gradient')"></path>
        <path id="Path_13211" data-name="Path 13211" d="M1977.591,581.782l-1.334.111h-.006a1.087,1.087,0,0,1-.182-2.166l1.346-.114a1.088,1.088,0,1,1,.183,2.168h-.007Z" transform="translate(-1700.916 -578.845)" fill="url('#linear-gradient')"></path>
        <path id="Path_13212" data-name="Path 13212" d="M1967.66,582.683l-1.331.137h-.006a1.084,1.084,0,0,1-.223-2.157l1.344-.14a1.085,1.085,0,0,1,.224,2.159h-.008Z" transform="translate(-1695.43 -579.346)" fill="url('#linear-gradient')"></path>
        <path id="Path_13213" data-name="Path 13213" d="M1957.75,583.776l-1.329.162h-.006a1.082,1.082,0,0,1-.264-2.148l1.341-.165a1.083,1.083,0,1,1,.265,2.149h-.007Z" transform="translate(-1689.955 -579.953)" fill="url('#linear-gradient-23')"></path>
        <path id="Path_13214" data-name="Path 13214" d="M1947.863,585.056l-1.326.187h-.006a1.08,1.08,0,0,1-.3-2.138l1.338-.19a1.08,1.08,0,1,1,.3,2.139h-.007Z" transform="translate(-1684.494 -580.663)" fill="url('#linear-gradient')"></path>
        <path id="Path_13215" data-name="Path 13215" d="M1938,586.524l-1.322.212h-.006a1.077,1.077,0,0,1-.343-2.127l1.333-.216a1.078,1.078,0,1,1,.344,2.128H1938Z" transform="translate(-1679.048 -581.477)" fill="url('#linear-gradient')"></path>
        <path id="Path_13216" data-name="Path 13216" d="M1928.172,588.177l-1.318.237h-.006a1.075,1.075,0,0,1-.382-2.116l1.329-.241a1.076,1.076,0,1,1,.383,2.117h-.007Z" transform="translate(-1673.618 -582.393)" fill="url('#linear-gradient')"></path>
        <path id="Path_13217" data-name="Path 13217" d="M1918.374,590.016l-1.313.262h-.006a1.072,1.072,0,0,1-.421-2.1l1.325-.266a1.073,1.073,0,1,1,.422,2.1h-.007Z" transform="translate(-1668.207 -583.412)" fill="url('#linear-gradient')"></path>
        <path id="Path_13218" data-name="Path 13218" d="M1908.612,592.036l-1.308.286h-.006a1.07,1.07,0,0,1-.459-2.09l1.319-.291a1.071,1.071,0,1,1,.46,2.091h-.007Z" transform="translate(-1662.816 -584.531)" fill="url('#linear-gradient')"></path>
        <path id="Path_13219" data-name="Path 13219" d="M1898.889,594.239l-1.3.31h-.006a1.067,1.067,0,0,1-.5-2.076l1.314-.315a1.068,1.068,0,0,1,.5,2.078h-.007Z" transform="translate(-1657.447 -585.751)" fill="url('#linear-gradient')"></path>
        <path id="Path_13220" data-name="Path 13220" d="M1889.208,596.621l-1.3.335h-.006a1.065,1.065,0,0,1-.533-2.062l1.308-.339a1.066,1.066,0,0,1,.535,2.064h0Z" transform="translate(-1652.101 -587.07)" fill="url('#linear-gradient')"></path>
        <path id="Path_13221" data-name="Path 13221" d="M1879.572,599.182l-1.29.358-.005,0a1.063,1.063,0,0,1-.57-2.047l1.3-.363a1.063,1.063,0,0,1,.571,2.049h-.007Z" transform="translate(-1646.781 -588.489)" fill="url('#linear-gradient')"></path>
        <path id="Path_13222" data-name="Path 13222" d="M1869.985,601.921l-1.284.382h-.006a1.06,1.06,0,0,1-.606-2.032l1.295-.387a1.061,1.061,0,0,1,.608,2.033h-.007Z" transform="translate(-1641.488 -590.005)" fill="url('#linear-gradient')"></path>
        <path id="Path_13223" data-name="Path 13223" d="M1860.45,604.836l-1.277.406-.005,0a1.058,1.058,0,0,1-.642-2.016l1.287-.41a1.059,1.059,0,1,1,.643,2.017h0Z" transform="translate(-1636.224 -591.618)" fill="url('#linear-gradient')"></path>
        <path id="Path_13224" data-name="Path 13224" d="M1850.969,607.925l-1.269.429-.006,0a1.055,1.055,0,0,1-.677-2l1.28-.434a1.056,1.056,0,0,1,.678,2h0Z" transform="translate(-1630.99 -593.328)" fill="url('#linear-gradient')"></path>
        <path id="Path_13225" data-name="Path 13225" d="M1841.546,611.188l-1.261.452-.005,0a1.053,1.053,0,0,1-.712-1.982l1.272-.457a1.054,1.054,0,1,1,.713,1.983h0Z" transform="translate(-1625.789 -595.134)" fill="url('#linear-gradient')"></path>
        <path id="Path_13226" data-name="Path 13226" d="M1832.184,614.622l-1.253.475-.005,0a1.05,1.05,0,0,1-.746-1.964l1.263-.481a1.051,1.051,0,0,1,.748,1.965h0Z" transform="translate(-1620.621 -597.034)" fill="url('#linear-gradient')"></path>
        <path id="Path_13227" data-name="Path 13227" d="M1822.886,618.227l-1.244.5-.005,0a1.048,1.048,0,0,1-.78-1.946l1.254-.5a1.049,1.049,0,0,1,.782,1.947h0Z" transform="translate(-1615.49 -599.029)" fill="url('#linear-gradient')"></path>
        <path id="Path_13228" data-name="Path 13228" d="M1813.659,622l-1.235.519-.005,0a1.043,1.043,0,0,1-.811-1.921l1.244-.527a1.045,1.045,0,1,1,.816,1.924h0Z" transform="translate(-1610.4 -601.119)" fill="url('#linear-gradient')"></path>
        <path id="Path_13229" data-name="Path 13229" d="M1804.5,625.944l-1.226.541-.005,0a1.035,1.035,0,0,1-.839-1.892l1.234-.55a1.038,1.038,0,0,1,.844,1.9h0Z" transform="translate(-1605.351 -603.306)" fill="url('#linear-gradient')"></path>
        <path id="Path_13230" data-name="Path 13230" d="M1795.42,630.054l-1.216.564,0,0a1.028,1.028,0,0,1-.868-1.864l1.224-.573a1.03,1.03,0,0,1,.873,1.866h0Z" transform="translate(-1600.343 -605.584)" fill="url('#linear-gradient')"></path>
        <path id="Path_13231" data-name="Path 13231" d="M1786.413,634.328l-1.206.586,0,0a1.021,1.021,0,0,1-.9-1.834l1.214-.595a1.023,1.023,0,1,1,.9,1.837l0,0Z" transform="translate(-1595.377 -607.954)" fill="url('#linear-gradient')"></path>
        <path id="Path_13232" data-name="Path 13232" d="M1777.485,638.766l-1.194.608-.005,0a1.013,1.013,0,0,1-.922-1.8l1.2-.617a1.015,1.015,0,0,1,.927,1.807l0,0Z" transform="translate(-1590.455 -610.414)" fill="url('#linear-gradient')"></path>
        <path id="Path_13233" data-name="Path 13233" d="M1768.64,643.368l-1.183.629,0,0a1.006,1.006,0,0,1-.948-1.775l1.191-.638a1.008,1.008,0,0,1,.952,1.777h0Z" transform="translate(-1585.58 -612.965)" fill="url('#linear-gradient')"></path>
        <path id="Path_13234" data-name="Path 13234" d="M1759.881,648.129l-1.172.651,0,0a1,1,0,0,1-.973-1.744l1.179-.66a1,1,0,1,1,.978,1.747l0,0Z" transform="translate(-1580.752 -615.603)" fill="url('#linear-gradient-10')"></path>
        <path id="Path_13235" data-name="Path 13235" d="M1751.212,653.05l-1.16.672,0,0a.991.991,0,0,1-1-1.713l1.167-.682a.993.993,0,0,1,1,1.716l0,0Z" transform="translate(-1575.974 -618.33)" fill="url('#linear-gradient')"></path>
        <path id="Path_13236" data-name="Path 13236" d="M1742.634,658.13l-1.147.693,0,0a.984.984,0,0,1-1.021-1.682l1.154-.7a.986.986,0,0,1,1.025,1.684l0,0Z" transform="translate(-1571.247 -621.145)" fill="url('#linear-gradient')"></path>
        <path id="Path_13237" data-name="Path 13237" d="M1734.152,663.366l-1.134.714,0,0a.977.977,0,0,1-1.043-1.651l1.141-.723a.979.979,0,0,1,1.049,1.653h0Z" transform="translate(-1566.574 -624.045)" fill="url('#linear-gradient-23')"></path>
        <path id="Path_13238" data-name="Path 13238" d="M1725.769,668.757l-1.121.735,0,0a.969.969,0,0,1-1.065-1.619l1.127-.744a.971.971,0,1,1,1.071,1.621l0,0Z" transform="translate(-1561.955 -627.032)" fill="url('#linear-gradient')"></path>
        <path id="Path_13239" data-name="Path 13239" d="M1717.488,674.3l-1.107.755,0,0a.962.962,0,0,1-1.087-1.587l1.113-.765a.964.964,0,1,1,1.092,1.589l0,0Z" transform="translate(-1557.393 -630.103)" fill="url('#linear-gradient')"></path>
        <path id="Path_13240" data-name="Path 13240" d="M1709.312,680l-1.093.776,0,0a.954.954,0,0,1-1.108-1.554l1.1-.786a.957.957,0,1,1,1.113,1.556l0,0Z" transform="translate(-1552.889 -633.259)" fill="url('#linear-gradient')"></path>
        <path id="Path_13241" data-name="Path 13241" d="M1701.244,685.848l-1.078.8,0,0a.947.947,0,0,1-1.128-1.522l1.083-.806a.949.949,0,0,1,1.133,1.524l0,0Z" transform="translate(-1548.446 -636.498)" fill="url('#linear-gradient')"></path>
        <path id="Path_13242" data-name="Path 13242" d="M1693.286,691.846l-1.063.816,0,0a.94.94,0,0,1-1.147-1.489l1.068-.826a.942.942,0,1,1,1.152,1.49l0,0Z" transform="translate(-1544.064 -639.82)" fill="url('#linear-gradient')"></path>
        <path id="Path_13243" data-name="Path 13243" d="M1685.444,697.993l-1.047.836,0,0a.932.932,0,0,1-1.165-1.456l1.052-.846a.935.935,0,1,1,1.171,1.457l0,0Z" transform="translate(-1539.746 -643.223)" fill="url('#linear-gradient')"></path>
        <path id="Path_13244" data-name="Path 13244" d="M1677.719,704.286l-1.031.855,0,0a.925.925,0,0,1-1.183-1.422l1.036-.865a.927.927,0,0,1,1.189,1.423l0,0Z" transform="translate(-1535.493 -646.708)" fill="url('#linear-gradient')"></path>
        <path id="Path_13245" data-name="Path 13245" d="M1670.116,710.724l-1.014.875,0,0a.918.918,0,0,1-1.2-1.388l1.02-.885a.92.92,0,1,1,1.206,1.389l0,0Z" transform="translate(-1531.308 -650.273)" fill="url('#linear-gradient')"></path>
        <path id="Path_13246" data-name="Path 13246" d="M1662.638,717.307l-1,.894,0,0a.91.91,0,0,1-1.217-1.354l1-.9a.912.912,0,1,1,1.222,1.355l0,0Z" transform="translate(-1527.191 -653.917)" fill="url('#linear-gradient')"></path>
        <path id="Path_13247" data-name="Path 13247" d="M1655.286,724.031l-.981.913,0,0a.9.9,0,0,1-1.233-1.32l.985-.923a.905.905,0,1,1,1.238,1.321l0,0Z" transform="translate(-1523.146 -657.639)" fill="url('#linear-gradient')"></path>
        <path id="Path_13248" data-name="Path 13248" d="M1648.065,730.9l-.962.932,0,0a.9.9,0,0,1-1.248-1.285l.967-.942a.9.9,0,1,1,1.253,1.286l0,0Z" transform="translate(-1519.173 -661.44)" fill="url('#linear-gradient')"></path>
        <path id="Path_13249" data-name="Path 13249" d="M1640.979,737.9l-.944.95,0,0a.888.888,0,0,1-1.262-1.25l.949-.961a.89.89,0,1,1,1.267,1.252l0,0Z" transform="translate(-1515.274 -665.317)" fill="url('#linear-gradient')"></path>
        <path id="Path_13250" data-name="Path 13250" d="M1634.03,745.043l-.926.969,0,0a.881.881,0,0,1-1.275-1.215l.93-.979a.883.883,0,1,1,1.281,1.216l0,0Z" transform="translate(-1511.451 -669.27)" fill="url('#linear-gradient-23')"></path>
        <path id="Path_13251" data-name="Path 13251" d="M1627.221,752.32l-.907.987,0,0a.874.874,0,0,1-1.288-1.18l.91-1a.876.876,0,0,1,1.294,1.181l0,0Z" transform="translate(-1507.707 -673.298)" fill="url('#linear-gradient')"></path>
        <path id="Path_13252" data-name="Path 13252" d="M1620.555,759.731l-.889,1,0,0a.866.866,0,0,1-1.3-1.146l.891-1.013a.869.869,0,0,1,1.3,1.147l0,0Z" transform="translate(-1504.041 -677.399)" fill="url('#linear-gradient')"></path>
        <path id="Path_13253" data-name="Path 13253" d="M1614.02,767.258l-.872,1.018,0,0a.859.859,0,0,1-1.307-1.115l.874-1.027a.861.861,0,0,1,1.312,1.116l0,0Z" transform="translate(-1500.448 -681.564)" fill="url('#linear-gradient')"></path>
        <path id="Path_13254" data-name="Path 13254" d="M1607.6,774.889l-.857,1.031,0,0a.851.851,0,0,1-1.312-1.086l.858-1.04a.854.854,0,0,1,1.317,1.087l0,0Z" transform="translate(-1496.92 -685.785)" fill="url('#linear-gradient')"></path>
        <path id="Path_13255" data-name="Path 13255" d="M1601.292,782.612l-.844,1.043,0,0a.844.844,0,0,1-1.314-1.06l.844-1.05a.846.846,0,0,1,1.319,1.061l0,0Z" transform="translate(-1493.45 -690.056)" fill="url('#linear-gradient')"></path>
        <path id="Path_13256" data-name="Path 13256" d="M1595.072,790.415l-.833,1.053,0,0a.837.837,0,0,1-1.314-1.036l.833-1.059a.839.839,0,1,1,1.319,1.037v0Z" transform="translate(-1490.029 -694.371)" fill="url('#linear-gradient')"></path>
        <path id="Path_13257" data-name="Path 13257" d="M1588.928,798.287l-.824,1.061a.829.829,0,1,1-1.313-1.013l.823-1.067a.831.831,0,1,1,1.317,1.015Z" transform="translate(-1486.65 -698.723)" fill="url('#linear-gradient')"></path>
        <path id="Path_13258" data-name="Path 13258" d="M1582.847,806.214l-.817,1.068a.822.822,0,0,1-1.309-1l.815-1.073a.824.824,0,1,1,1.313,1Z" transform="translate(-1483.305 -703.105)" fill="url('#linear-gradient')"></path>
        <path id="Path_13259" data-name="Path 13259" d="M1576.814,814.188l-.811,1.073a.815.815,0,0,1-1.3-.979l.809-1.078a.817.817,0,0,1,1.307.981Z" transform="translate(-1479.987 -707.512)" fill="url('#linear-gradient')"></path>
        <path id="Path_13260" data-name="Path 13260" d="M1570.821,822.19l-.807,1.077a.808.808,0,0,1-1.295-.965l.8-1.081a.81.81,0,1,1,1.3.967Z" transform="translate(-1476.689 -711.934)" fill="url('#linear-gradient')"></path>
        <path id="Path_13261" data-name="Path 13261" d="M1564.853,830.212l-.807,1.078a.8.8,0,0,1-1.28-.952l.8-1.083a.8.8,0,1,1,1.289.953Z" transform="translate(-1473.407 -716.366)" fill="url('#linear-gradient')"></path>
        <path id="Path_13262" data-name="Path 13262" d="M1558.89,838.248l-.807,1.078a.784.784,0,0,1-1.259-.936l.8-1.083a.788.788,0,1,1,1.268.937Z" transform="translate(-1470.131 -720.811)" fill="url('#linear-gradient')"></path>
        <path id="Path_13263" data-name="Path 13263" d="M1552.92,846.282l-.809,1.078a.772.772,0,0,1-1.237-.923l.8-1.081a.775.775,0,1,1,1.246.923Z" transform="translate(-1466.851 -725.253)" fill="url('#linear-gradient')"></path>
        <path id="Path_13264" data-name="Path 13264" d="M1546.929,854.3l-.813,1.075a.758.758,0,0,1-1.212-.912l.805-1.078a.762.762,0,0,1,1.223.911Z" transform="translate(-1463.558 -729.688)" fill="url('#linear-gradient')"></path>
        <path id="Path_13265" data-name="Path 13265" d="M1540.9,862.3l-.819,1.071a.745.745,0,0,1-1.186-.9l.811-1.074a.749.749,0,0,1,1.2.9Z" transform="translate(-1460.245 -734.11)" fill="url('#linear-gradient')"></path>
        <path id="Path_13266" data-name="Path 13266" d="M1534.826,870.265,1534,871.33a.732.732,0,0,1-1.159-.9l.818-1.067a.736.736,0,1,1,1.171.893Z" transform="translate(-1456.904 -738.511)" fill="url('#linear-gradient')"></path>
        <path id="Path_13267" data-name="Path 13267" d="M1528.683,878.184l-.836,1.058a.719.719,0,0,1-1.13-.891l.827-1.059a.723.723,0,1,1,1.142.887Z" transform="translate(-1453.526 -742.888)" fill="url('#linear-gradient')"></path>
        <path id="Path_13268" data-name="Path 13268" d="M1522.462,886.042l-.847,1.048a.706.706,0,0,1-1.1-.884l0,0,.838-1.05v0a.71.71,0,1,1,1.11.886Z" transform="translate(-1450.103 -747.231)" fill="url('#linear-gradient')"></path>
        <path id="Path_13269" data-name="Path 13269" d="M1516.152,893.828l-.86,1.038a.693.693,0,0,1-1.07-.881l0,0,.851-1.039,0,0a.7.7,0,1,1,1.078.883Z" transform="translate(-1446.631 -751.534)" fill="url('#linear-gradient')"></path>
        <path id="Path_13270" data-name="Path 13270" d="M1509.739,901.529l-.875,1.026a.68.68,0,0,1-1.037-.88l0,0,.865-1.026,0,0a.684.684,0,1,1,1.045.882Z" transform="translate(-1443.102 -755.789)" fill="url('#linear-gradient')"></path>
        <path id="Path_13271" data-name="Path 13271" d="M1503.208,909.132l-.891,1.011a.667.667,0,0,1-1-.879l0,0,.881-1.011,0,0a.671.671,0,0,1,1.012.882Z" transform="translate(-1439.507 -759.99)" fill="url('#linear-gradient-10')"></path>
        <path id="Path_13272" data-name="Path 13272" d="M1496.547,916.625l-.91,1a.654.654,0,0,1-.968-.88l0,0,.9-.995,0,0a.658.658,0,0,1,.976.882Z" transform="translate(-1435.839 -764.13)" fill="url('#linear-gradient')"></path>
        <path id="Path_13273" data-name="Path 13273" d="M1489.736,924l-.933.976a.641.641,0,0,1-.929-.883l0,0,.92-.974,0,0a.645.645,0,1,1,.938.886Z" transform="translate(-1432.088 -768.202)" fill="url('#linear-gradient')"></path>
        <path id="Path_13274" data-name="Path 13274" d="M1482.721,931.19l-.967.946a.628.628,0,0,1-.881-.895l.006-.006.951-.941.005-.005a.632.632,0,0,1,.888.9Z" transform="translate(-1428.221 -772.174)" fill="url('#linear-gradient-23')"></path>
        <path id="Path_13275" data-name="Path 13275" d="M1475.424,938.121l-1.011.9a.615.615,0,0,1-.822-.914l.007-.007.991-.9.007-.006a.619.619,0,0,1,.83.918Z" transform="translate(-1424.195 -775.999)" fill="url('#linear-gradient')"></path>
        <path id="Path_13276" data-name="Path 13276" d="M1467.776,944.687l-1.063.844a.6.6,0,0,1-.751-.94l.009-.008,1.04-.835.009-.007a.606.606,0,1,1,.758.944Z" transform="translate(-1419.974 -779.62)" fill="url('#linear-gradient')"></path>
        <path id="Path_13277" data-name="Path 13277" d="M1459.716,950.765l-1.123.766a.588.588,0,0,1-.666-.97l.012-.008,1.1-.757.011-.008a.593.593,0,0,1,.673.975Z" transform="translate(-1415.526 -782.972)" fill="url('#linear-gradient')"></path>
        <path id="Path_13278" data-name="Path 13278" d="M1451.2,956.211l-1.187.666a.575.575,0,0,1-.566-1l.014-.009,1.155-.656.014-.008a.579.579,0,0,1,.573,1.007Z" transform="translate(-1410.828 -785.974)" fill="url('#linear-gradient')"></path>
        <path id="Path_13279" data-name="Path 13279" d="M1442.209,960.851l-1.252.542a.562.562,0,0,1-.45-1.031l.017-.008,1.214-.534.017-.008a.566.566,0,1,1,.456,1.037Z" transform="translate(-1405.873 -788.533)" fill="url('#linear-gradient')"></path>
        <path id="Path_13280" data-name="Path 13280" d="M1432.778,964.5l-1.307.392a.549.549,0,0,1-.319-1.051l.02-.006,1.266-.388.019-.006a.553.553,0,1,1,.324,1.058Z" transform="translate(-1400.684 -790.55)" fill="url('#linear-gradient')"></path>
        <path id="Path_13281" data-name="Path 13281" d="M1422.965,966.951l-1.356.2a.536.536,0,0,1-.156-1.061l.024,0,1.306-.2.024,0a.54.54,0,1,1,.161,1.068Z" transform="translate(-1395.296 -791.904)" fill="url('#linear-gradient-59')"></path>
        <path id="Path_13282" data-name="Path 13282" d="M1412.937,967.9l-1.369-.007a.523.523,0,0,1,0-1.046h1.369a.527.527,0,1,1,0,1.054Z" transform="translate(-1389.808 -792.44)" fill="url('#linear-gradient-10')"></path>
        <path id="Path_13283" data-name="Path 13283" d="M1402.917,967.117l-1.352-.209a.51.51,0,0,1,.153-1.008l.023,0,1.308.194.023,0a.514.514,0,0,1-.151,1.017Z" transform="translate(-1384.339 -791.914)" fill="url('#linear-gradient-42')"></path>
        <path id="Path_13284" data-name="Path 13284" d="M1393.132,964.827l-1.3-.417a.5.5,0,0,1,.3-.948l.023.007,1.26.395.023.007a.5.5,0,1,1-.3.956Z" transform="translate(-1379.016 -790.56)" fill="url('#linear-gradient-196')"></path>
        <path id="Path_13285" data-name="Path 13285" d="M1383.852,960.967l-1.216-.636a.484.484,0,0,1,.446-.859l.024.013,1.172.6.024.012a.488.488,0,1,1-.447.867Z" transform="translate(-1373.994 -788.342)" fill="url('#linear-gradient')"></path>
        <path id="Path_13286" data-name="Path 13286" d="M1375.439,955.457l-1.07-.864a.471.471,0,0,1,.589-.734l.024.019,1.028.821.023.019a.475.475,0,1,1-.592.742Z" transform="translate(-1369.481 -785.219)" fill="url('#linear-gradient-59')"></path>
        <path id="Path_13287" data-name="Path 13287" d="M1368.374,948.3l-.852-1.082a.458.458,0,0,1,.717-.569l.02.026.818,1.026.02.026a.462.462,0,0,1-.722.575Z" transform="translate(-1365.746 -781.204)" fill="url('#linear-gradient')"></path>
        <path id="Path_13288" data-name="Path 13288" d="M1363.785,941.082l-.056-.113a.448.448,0,1,1,.8-.4h0l.054.107v0a.449.449,0,0,1-.8.4Z" transform="translate(-1363.682 -777.809)" fill="url('#linear-gradient-59')"></path>
      </g>
      <g id="Group_974" data-name="Group 974" transform="translate(1353.349 335.854)">
        <path id="Path_13289" data-name="Path 13289" d="M1813.981,650.238c8.571-2.7,22.634-8.871,29.307-21.514a4.854,4.854,0,0,0-3.163-6.939c-15.057-3.776-55.509-17.93-51.786-60.46,4.565-52.155,63.083-55.631,100.417-45.26s56.267,35.975,47.64,75.209c-8.133,36.992-79.214,64.722-122.08,61.68A1.392,1.392,0,0,1,1813.981,650.238Z" transform="translate(-1788.098 -511.374)" fill="#91b3fa"></path>
        <path id="Path_13290" data-name="Path 13290" d="M1956.88,758.442c-1.4,0-2.209-.044-2.279-.047a.9.9,0,0,1,.1-1.791,71.958,71.958,0,0,0,8.99-.254.9.9,0,1,1,.15,1.787C1960.9,758.383,1958.5,758.442,1956.88,758.442Z" transform="translate(-1879.472 -646.497)" fill="url('#linear-gradient')"></path>
        <path id="Path_13291" data-name="Path 13291" d="M2013.573,651.4a.9.9,0,0,1-.263-1.755c16.422-5.04,27.055-14.664,31.6-28.6,5.85-17.922,2.5-30.735-1.334-38.328a36.26,36.26,0,0,0-9.847-12.341.9.9,0,0,1,1.038-1.463,37.29,37.29,0,0,1,10.365,12.907c4.019,7.907,7.539,21.227,1.483,39.781-4.675,14.322-16.011,24.614-32.784,29.761A.9.9,0,0,1,2013.573,651.4Z" transform="translate(-1911.972 -543.018)" fill="url('#linear-gradient')"></path>
        <g id="Group_973" data-name="Group 973" transform="translate(35.53 26.622)">
          <path id="Path_13292" data-name="Path 13292" d="M1905,590.252s-6.183-22.089-27.784-13.863c-20.464,7.793-7.827,35.391,25.734,47.794a11.949,11.949,0,0,0,10.9-1.367c11.972-8.218,39.254-30.338,17.947-49.086C1918.038,561.623,1905,590.252,1905,590.252Z" transform="translate(-1867.332 -570.744)" fill="url('#linear-gradient')"></path>
        </g>
      </g>
      <g id="Group_986" data-name="Group 986" transform="translate(688.599 316.439)">
        <path id="Path_13311" data-name="Path 13311" d="M1349.607,913.908l-2.933,10.307-5.719-6.417Z" transform="translate(-1304.944 -894.804)" fill="#7d97f4"></path>
        <path id="Path_13312" data-name="Path 13312" d="M1260.647,871.3l20.887,32.334a2.712,2.712,0,0,0,3.834.75l31.674-22.193a1.087,1.087,0,0,0-.453-1.964Z" transform="translate(-1260.647 -871.305)" fill="#91b3fa"></path>
        <path id="Path_13313" data-name="Path 13313" d="M1305.307,890.409l-44.659-19.1,39.559,22.7-.692,2.893Z" transform="translate(-1260.647 -871.305)" fill="#7d97f4"></path>
        <path id="Path_13314" data-name="Path 13314" d="M1342.087,924.041l5.212,4.6-2.172-6.709Z" transform="translate(-1305.568 -899.229)" fill="#7d97f4"></path>
      </g>
      <g id="Group_963" data-name="Group 963" transform="translate(1251.721 585.782)">
        <path id="Path_13047" data-name="Path 13047" d="M2048.2,1189.473s18.44,10.215,19.966,27.5.127,89.046-36.85,106.707-85.922,13.591-104.657,11.66-29.123-14.663-31.443-23.43-6.068-41.424,13.64-51.958,40.409-26.673,61.094-42.388S2026.082,1176.2,2048.2,1189.473Z" transform="translate(-1865.29 -1157.112)" fill="url('#linear-gradient-204')"></path>
        <path id="Path_13048" data-name="Path 13048" d="M1914.087,1364.48s4.977.263,5.587,10.5c0,0-11.54,10.345-27.13,12.808-1.17.185,1.636-7.989,2.058-9.1C1896.61,1373.426,1902.932,1370.033,1914.087,1364.48Z" transform="translate(-1864.71 -1255.676)" fill="url('#linear-gradient-205')"></path>
        <path id="Path_13049" data-name="Path 13049" d="M1979.587,1289.421h-10.5s-32.235-35.6-53.377-39.192c0,0-14.717,18.786.784,53.887a5.123,5.123,0,0,0,7.336,2.417,4.2,4.2,0,0,0,1.676-2l-1.247-29.971s27.5,24.049,32.276,28.69S1985.606,1305.066,1979.587,1289.421Z" transform="translate(-1874.16 -1192.657)" fill="url('#linear-gradient-206')"></path>
        <path id="Path_13050" data-name="Path 13050" d="M1839.342,1492.725a39.485,39.485,0,0,1,21.537-9.425l3.424,2.094a37.281,37.281,0,0,1-6.171,6.622c-3.666,2.129-9.326,5.012-14.018,5.637C1839.552,1498.261,1838.879,1495.5,1839.342,1492.725Z" transform="translate(-1835.452 -1321.216)" fill="url('#linear-gradient-207')"></path>
        <path id="Path_13051" data-name="Path 13051" d="M1891.989,1389.689c2.712.878,3.9,4.719,10.784,2.178a60.885,60.885,0,0,0,14.15-7.454c.057.495.1,1.013.138,1.564,0,0-12.168,11.574-27.757,14.037a1.552,1.552,0,0,1-1.676-2.09A39.146,39.146,0,0,1,1891.989,1389.689Z" transform="translate(-1862.097 -1266.671)" fill="#91b3fa"></path>
        <path id="Path_13052" data-name="Path 13052" d="M1831.395,1506.74a36.317,36.317,0,0,1,3.315-3.293c-.463,2.779.209,5.536,4.772,4.928,4.692-.625,10.352-3.508,14.018-5.637-4.594,3.918-11.584,8.077-20.406,7.833A2.314,2.314,0,0,1,1831.395,1506.74Z" transform="translate(-1830.82 -1331.937)" fill="#91b3fa"></path>
        <path id="Path_13053" data-name="Path 13053" d="M1963.7,1354.577l-49.183.533s-28.086,23.238-33.181,58.672c0,0-.846,2.606,4.231,3.052a97.5,97.5,0,0,0,28.053-30.7c13.576-24.043,40.473-13.22,40.473-13.22,8.837-6.371,21.325-7.669,30.733-9.792Z" transform="translate(-1858.652 -1250.214)" fill="url('#linear-gradient-208')"></path>
        <path id="Path_13054" data-name="Path 13054" d="M2010.031,1266.224s-5.295,26.534-31.237,37.031l-9.228-1.088-2.177,3.472,21.646.69a59.2,59.2,0,0,0,28.305-27.3C2017.664,1278.373,2023.063,1267.226,2010.031,1266.224Z" transform="translate(-1906.15 -1201.48)" fill="url('#linear-gradient-209')"></path>
        <path id="Path_13055" data-name="Path 13055" d="M2055.148,1274.091s6.021-16.367,7.315-32.269a69.516,69.516,0,0,0-7.158-5.419,1.99,1.99,0,0,1-.777-2.581c2.024-4.193,14.265-20.658,15.181-20.887,4.984-1.243,25.424-10.962,39.82,8.729,6.178,8.451-1.226,34.465-29.255,61.406l-5.782,1.106Z" transform="translate(-1954.104 -1170.162)" fill="#ff735d"></path>
        <path id="Path_13056" data-name="Path 13056" d="M2037.169,1289.646s-16.728,19.807-38.115,22.7c0,0-5.527-5.039-9.637-3.24s-9.745,9.74-9.745,9.74h27.46s25.965-.915,38.939-16.66C2045.028,1296.678,2041.9,1293.388,2037.169,1289.646Z" transform="translate(-1912.924 -1214.399)" fill="url('#linear-gradient-210')"></path>
        <path id="Path_13057" data-name="Path 13057" d="M2115.271,1186.249l3.661,12.207a1.342,1.342,0,0,1-.522,1.495,13.636,13.636,0,0,1-12.686,1.274,1.991,1.991,0,0,1-1.28-1.709l-.868-10.634Z" transform="translate(-1981.268 -1157.367)" fill="url('#linear-gradient-211')"></path>
        <g id="Group_962" data-name="Group 962" transform="translate(104.579 0)">
          <path id="Path_13058" data-name="Path 13058" d="M2081.862,1153.939s1.8,12.654,6.66,16.546,14.332.961,17.53-8.578l-6.373-16.311Z" transform="translate(-2073.87 -1134.943)" fill="url('#linear-gradient-212')"></path>
          <path id="Path_13059" data-name="Path 13059" d="M2090.567,1143.047a.626.626,0,0,1-.815-.5,16.356,16.356,0,0,0-1.5-5.055s.464-1.66-4.2.848-11.658,6.192-15.779,4c-4.017-2.139-8.086-12.9,2.53-10.909a.626.626,0,0,0,.745-.656c-.131-1.769.045-5.84,4.167-7.146,3.857-1.223,5.969.518,6.839,1.569a.622.622,0,0,0,.975-.016c1.156-1.508,4.293-4.719,8.913-2.683,3.8,1.677,4.4,4.021,4.334,5.481a.624.624,0,0,0,.89.6c1.165-.537,3.04-.816,4.835,1.434,2.482,3.11-1.065,5.807-2.129,6.514a.627.627,0,0,0-.284.517c-.01,1.617-.262,8.672-3.8,12.652a.632.632,0,0,1-1.05-.182l-2.723-6.487a.629.629,0,0,0-.773-.356Z" transform="translate(-2064.04 -1121.84)" fill="#e38f45"></path>
          <path id="Path_13060" data-name="Path 13060" d="M2123.069,1165.9s1.662-6.771,4.188-4.573-.658,7.037-3.552,7.96Z" transform="translate(-2096.6 -1143.381)" fill="url('#linear-gradient-213')"></path>
        </g>
        <path id="Path_13061" data-name="Path 13061" d="M1939.406,1302.535l-12.33-41.118a4.205,4.205,0,0,0-3.741-2.987l-16.647-1.139a2.361,2.361,0,0,0-2.389,3.138l13.783,39.267a3.456,3.456,0,0,0,2.913,2.294l16.393,1.82Z" transform="translate(-1871.276 -1196.549)" fill="#91b3fa"></path>
        <path id="Path_13062" data-name="Path 13062" d="M1931.268,1292.134c.92,1.858,2.51,2.947,3.551,2.431s1.138-2.44.217-4.3-2.51-2.947-3.551-2.431S1930.348,1290.276,1931.268,1292.134Z" transform="translate(-1885.877 -1213.33)" fill="#bdd0fb"></path>
        <path id="Path_13063" data-name="Path 13063" d="M1976.335,1355.014c.027,0,.053,0,.08,0l34.929-1.765a1.565,1.565,0,1,0-.158-3.127l-34.929,1.765a1.565,1.565,0,0,0,.078,3.129Z" transform="translate(-1910.221 -1247.754)" fill="#7d97f4"></path>
        <path id="Path_13064" data-name="Path 13064" d="M2072.193,1260.488a.224.224,0,0,1-.224-.223c-.024-7.371,2.813-17.127,2.841-17.224a.224.224,0,1,1,.43.126c-.028.1-2.847,9.791-2.823,17.1a.224.224,0,0,1-.223.225Z" transform="translate(-1963.834 -1188.603)" fill="url('#linear-gradient-214')"></path>
        <path id="Path_13065" data-name="Path 13065" d="M2107.618,1269.428a.224.224,0,0,1-.176-.363c.077-.1,7.67-9.75,10.27-16.338a.224.224,0,0,1,.417.165c-2.624,6.649-10.258,16.353-10.334,16.45A.225.225,0,0,1,2107.618,1269.428Z" transform="translate(-1983.374 -1193.957)" fill="url('#linear-gradient-215')"></path>
        <path id="Path_13066" data-name="Path 13066" d="M2130.169,1300.556l-1.373-1.941a.224.224,0,0,1,.366-.259l1.164,1.645c10.786-4.721,17.465-17.624,17.531-17.755a.224.224,0,0,1,.4.2c-.068.132-6.885,13.31-17.92,18.035Z" transform="translate(-1995.156 -1210.25)" fill="url('#linear-gradient-216')"></path>
      </g>
    </g>
  </g>
</svg>
