<svg xmlns="http://www.w3.org/2000/svg" width="235.034" height="633.53"><g id="wave_ab1" transform="translate(-1685)"><path id="Path_12995" data-name="Path 12995" d="M264.968-.253A176.443 176.443 0 0 1 427.05 125.45c5.72 19.106 8.18 39.1 14.483 58.024s17.351 37.447 35.051 46.636A55.47 55.47 0 0 0 500 236.141V0Z" transform="translate(1420.032 .253)" fill="#b29beb"/><path id="Path_12996" data-name="Path 12996" d="M622.973 264.684v633.53a346.08 346.08 0 0 1-169.924-157.559c-12.718-24.526-22.534-50.924-25.213-78.42-4.563-46.872 11.77-93.217 31.394-136.026s42.976-84.483 53.926-130.286c8.316-34.789 8.712-73.264-8.868-104.416a131.529 131.529 0 0 0-20.671-26.823Z" transform="translate(1297.027 -264.684)" fill="#fff" opacity=".4"/></g></svg>